<?xml version="1.0" encoding="utf-8"?>
<!-- Generator: Adobe Illustrator 26.0.2, SVG Export Plug-In . SVG Version: 6.00 Build 0)  -->
<svg version="1.1" id="Layer_1" xmlns="http://www.w3.org/2000/svg" xmlns:xlink="http://www.w3.org/1999/xlink" x="0px" y="0px"
	 viewBox="0 0 309 75" style="enable-background:new 0 0 309 75;" xml:space="preserve">
<style type="text/css">
	.st0{fill-rule:evenodd;clip-rule:evenodd;}
</style>
<g>
	<g>
		<path class="st0" d="M117,30.6h-4.8l-0.6,1.3c-0.2,0.4-0.3,0.8-0.3,1.1c0,0.4,0.2,0.7,0.5,0.9c0.2,0.1,0.6,0.2,1.3,0.2v0.4h-4.6
			v-0.4c0.5-0.1,0.9-0.3,1.2-0.6c0.3-0.3,0.7-1,1.2-2.1l4.9-10.9h0.2l4.9,11.2c0.5,1.1,0.9,1.7,1.2,2c0.2,0.2,0.6,0.3,1,0.4v0.4
			h-6.6v-0.4h0.3c0.5,0,0.9-0.1,1.1-0.2c0.1-0.1,0.2-0.3,0.2-0.5c0-0.1,0-0.2-0.1-0.4c0-0.1-0.1-0.3-0.3-0.8L117,30.6L117,30.6z
			 M116.7,29.8l-2-4.7l-2.1,4.7H116.7L116.7,29.8z"/>
		<path d="M131.5,25v7.4c0,0.7,0.1,1.2,0.2,1.4c0.1,0.2,0.4,0.3,0.8,0.3v0.4h-3.9v-1.3c-0.5,0.5-0.9,0.9-1.4,1.2
			c-0.5,0.2-1,0.4-1.5,0.4s-1-0.2-1.4-0.5s-0.7-0.7-0.8-1.2c-0.1-0.4-0.2-1.2-0.2-2.3V27c0-0.7-0.1-1.2-0.2-1.3
			c-0.1-0.2-0.4-0.3-0.8-0.3V25h3.9v6.5c0,0.7,0,1.1,0.1,1.3s0.2,0.3,0.3,0.4c0.1,0.1,0.3,0.2,0.5,0.2s0.5-0.1,0.7-0.2
			c0.3-0.2,0.6-0.5,1-1.1V27c0-0.7-0.1-1.2-0.2-1.3c-0.1-0.2-0.4-0.3-0.8-0.3V25H131.5L131.5,25z"/>
		<path d="M139.2,24.7l0.2,3.2H139c-0.4-1-0.8-1.6-1.3-2c-0.4-0.3-0.9-0.5-1.3-0.5c-0.3,0-0.5,0.1-0.7,0.3c-0.2,0.2-0.3,0.4-0.3,0.6
			s0.1,0.4,0.2,0.5c0.2,0.3,0.8,0.8,1.8,1.4c1,0.7,1.6,1.2,2,1.7c0.3,0.5,0.5,1,0.5,1.6c0,0.5-0.1,1-0.4,1.5
			c-0.3,0.5-0.6,0.9-1.1,1.2s-1,0.4-1.6,0.4c-0.4,0-1.1-0.1-1.8-0.4c-0.2-0.1-0.3-0.1-0.4-0.1c-0.2,0-0.4,0.2-0.6,0.5h-0.3l-0.2-3.4
			h0.3c0.3,0.9,0.7,1.6,1.2,2s1,0.7,1.5,0.7c0.3,0,0.6-0.1,0.8-0.3s0.3-0.4,0.3-0.7s-0.1-0.6-0.3-0.8s-0.7-0.6-1.4-1.1
			c-1-0.7-1.7-1.3-2-1.6c-0.4-0.6-0.7-1.2-0.7-1.8c0-0.7,0.3-1.4,0.8-2s1.2-0.9,2.2-0.9c0.5,0,1,0.1,1.5,0.4
			c0.2,0.1,0.3,0.2,0.4,0.2c0.1,0,0.2,0,0.3-0.1s0.2-0.2,0.4-0.4L139.2,24.7L139.2,24.7z"/>
		<path d="M144.2,21.6V25h2.2v1h-2.2v5.8c0,0.5,0,0.9,0.1,1.1c0.1,0.2,0.1,0.3,0.3,0.4c0.1,0.1,0.2,0.1,0.4,0.1c0.4,0,0.9-0.3,1.2-1
			l0.3,0.2c-0.5,1.3-1.4,1.9-2.7,1.9c-0.6,0-1.1-0.2-1.5-0.5s-0.7-0.7-0.8-1.1c-0.1-0.2-0.1-0.8-0.1-1.9v-5h-1.2v-0.4
			c0.9-0.6,1.6-1.2,2.2-1.9c0.6-0.7,1.1-1.4,1.6-2.2L144.2,21.6L144.2,21.6z"/>
		<path d="M151,25v2.1c0.6-1,1.2-1.6,1.6-1.9c0.5-0.3,0.9-0.5,1.4-0.5c0.4,0,0.7,0.1,0.9,0.4c0.2,0.2,0.3,0.6,0.3,1
			c0,0.5-0.1,0.8-0.3,1.1c-0.2,0.2-0.5,0.4-0.8,0.4c-0.4,0-0.7-0.1-0.9-0.3c-0.3-0.2-0.4-0.4-0.5-0.4s-0.1-0.1-0.2-0.1
			c-0.2,0-0.4,0.1-0.6,0.2c-0.3,0.2-0.5,0.6-0.6,1c-0.2,0.7-0.3,1.4-0.3,2.2v2.2V33c0,0.4,0,0.6,0.1,0.7c0.1,0.2,0.2,0.3,0.4,0.4
			c0.2,0.1,0.4,0.1,0.8,0.2v0.4h-5.1v-0.4c0.4,0,0.7-0.1,0.8-0.3s0.2-0.7,0.2-1.5V27c0-0.5,0-0.9-0.1-1c-0.1-0.2-0.2-0.3-0.3-0.4
			s-0.4-0.1-0.7-0.2V25H151L151,25z"/>
		<path class="st0" d="M160.5,33.1c-1.2,1-2.2,1.5-3.1,1.5c-0.5,0-1-0.2-1.3-0.5c-0.4-0.4-0.5-0.8-0.5-1.3c0-0.7,0.3-1.4,0.9-1.9
			c0.6-0.6,2-1.4,4.1-2.3v-0.9c0-0.7,0-1.2-0.1-1.3c-0.1-0.2-0.2-0.4-0.4-0.5s-0.5-0.2-0.7-0.2c-0.4,0-0.8,0.1-1.1,0.3
			c-0.2,0.1-0.3,0.3-0.3,0.4s0.1,0.3,0.3,0.5c0.3,0.3,0.4,0.6,0.4,0.8c0,0.3-0.1,0.6-0.4,0.8c-0.2,0.2-0.6,0.3-1,0.3
			s-0.8-0.1-1.1-0.4s-0.4-0.6-0.4-0.9c0-0.5,0.2-0.9,0.6-1.4c0.4-0.4,0.9-0.8,1.6-1c0.7-0.2,1.4-0.4,2.1-0.4c0.9,0,1.6,0.2,2.1,0.6
			s0.9,0.8,1,1.2c0.1,0.3,0.1,0.9,0.1,2v3.7c0,0.4,0,0.7,0.1,0.8c0,0.1,0.1,0.2,0.1,0.2c0.1,0.1,0.1,0.1,0.2,0.1
			c0.2,0,0.4-0.1,0.5-0.4l0.3,0.2c-0.3,0.5-0.7,0.9-1.1,1.1c-0.4,0.2-0.8,0.3-1.2,0.3c-0.5,0-1-0.1-1.3-0.4
			C160.7,34,160.6,33.6,160.5,33.1L160.5,33.1z M160.5,32.3v-3.2c-0.8,0.5-1.4,1-1.8,1.5c-0.3,0.4-0.4,0.7-0.4,1.1
			c0,0.3,0.1,0.6,0.3,0.8s0.4,0.3,0.7,0.3C159.7,32.9,160.1,32.7,160.5,32.3L160.5,32.3z"/>
		<path d="M168.7,20.8v11.8c0,0.7,0.1,1.1,0.2,1.3c0.2,0.2,0.5,0.3,0.9,0.3v0.4h-5.1v-0.4c0.4,0,0.7-0.1,0.9-0.4
			c0.1-0.2,0.2-0.6,0.2-1.2v-9.8c0-0.7-0.1-1.1-0.2-1.3c-0.2-0.2-0.5-0.3-0.9-0.3v-0.4L168.7,20.8L168.7,20.8z"/>
		<path class="st0" d="M173,20.4c0.4,0,0.8,0.2,1.1,0.5s0.5,0.7,0.5,1.1s-0.2,0.8-0.5,1.1c-0.3,0.3-0.7,0.5-1.1,0.5
			c-0.4,0-0.8-0.2-1.1-0.5s-0.5-0.7-0.5-1.1s0.1-0.8,0.5-1.1C172.2,20.6,172.6,20.4,173,20.4L173,20.4z M174.5,25v7.5
			c0,0.7,0.1,1.1,0.2,1.3c0.2,0.2,0.5,0.3,0.9,0.3v0.4h-5.1v-0.4c0.4,0,0.7-0.1,0.9-0.4c0.1-0.2,0.2-0.6,0.2-1.2V27
			c0-0.7-0.1-1.1-0.2-1.3c-0.2-0.2-0.5-0.3-0.9-0.3V25H174.5L174.5,25z"/>
		<path class="st0" d="M181.1,33.1c-1.2,1-2.2,1.5-3.1,1.5c-0.5,0-1-0.2-1.3-0.5c-0.4-0.4-0.5-0.8-0.5-1.3c0-0.7,0.3-1.4,0.9-1.9
			c0.6-0.6,2-1.4,4.1-2.3v-0.9c0-0.7,0-1.2-0.1-1.3c-0.1-0.2-0.2-0.4-0.4-0.5s-0.5-0.2-0.7-0.2c-0.4,0-0.8,0.1-1.1,0.3
			c-0.2,0.1-0.3,0.3-0.3,0.4s0.1,0.3,0.3,0.5c0.3,0.3,0.4,0.6,0.4,0.8c0,0.3-0.1,0.6-0.4,0.8c-0.2,0.2-0.6,0.3-1,0.3
			s-0.8-0.1-1.1-0.4s-0.4-0.6-0.4-0.9c0-0.5,0.2-0.9,0.6-1.4c0.4-0.4,0.9-0.8,1.6-1c0.7-0.2,1.4-0.4,2.1-0.4c0.9,0,1.6,0.2,2.1,0.6
			s0.9,0.8,1,1.2c0.1,0.3,0.1,0.9,0.1,2v3.7c0,0.4,0,0.7,0.1,0.8c0,0.1,0.1,0.2,0.2,0.2c0.1,0.1,0.1,0.1,0.2,0.1
			c0.2,0,0.4-0.1,0.5-0.4l0.3,0.2c-0.3,0.5-0.7,0.9-1.1,1.1c-0.4,0.2-0.8,0.3-1.2,0.3c-0.5,0-1-0.1-1.3-0.4
			C181.4,34,181.2,33.6,181.1,33.1L181.1,33.1z M181.1,32.3v-3.2c-0.8,0.5-1.4,1-1.8,1.5c-0.3,0.4-0.4,0.7-0.4,1.1
			c0,0.3,0.1,0.6,0.3,0.8s0.4,0.3,0.7,0.3C180.3,32.9,180.7,32.7,181.1,32.3L181.1,32.3z"/>
		<path d="M189.3,25v1.2c0.5-0.5,1-0.9,1.4-1.1s0.9-0.4,1.4-0.4c0.6,0,1.1,0.2,1.5,0.5s0.7,0.8,0.8,1.3c0.1,0.4,0.2,1.1,0.2,2.2v3.7
			c0,0.7,0.1,1.2,0.2,1.4c0.1,0.2,0.4,0.3,0.8,0.3v0.4h-4.8v-0.4c0.4,0,0.6-0.2,0.8-0.4c0.1-0.2,0.2-0.6,0.2-1.3v-4.2
			c0-0.8,0-1.3-0.1-1.5s-0.2-0.4-0.3-0.5s-0.3-0.2-0.5-0.2c-0.6,0-1.1,0.4-1.6,1.2v5.1c0,0.7,0.1,1.2,0.2,1.3
			c0.1,0.2,0.4,0.3,0.7,0.4v0.4h-4.8V34c0.4,0,0.7-0.2,0.8-0.4c0.1-0.1,0.2-0.6,0.2-1.3V27c0-0.7-0.1-1.2-0.2-1.3
			c-0.1-0.2-0.4-0.3-0.8-0.3V25H189.3L189.3,25z"/>
		<path d="M214.3,20.4v4.8h-0.4c-0.5-1.3-1.1-2.3-2-3s-1.9-1-3-1c-1,0-1.9,0.3-2.6,0.9c-0.7,0.6-1.2,1.4-1.4,2.4
			c-0.3,1-0.4,2.1-0.4,3.2c0,1.3,0.2,2.5,0.5,3.5s0.8,1.7,1.5,2.2s1.5,0.7,2.5,0.7c0.3,0,0.7,0,1-0.1c0.4-0.1,0.7-0.2,1.1-0.3v-2.9
			c0-0.5,0-0.9-0.1-1c-0.1-0.2-0.2-0.3-0.5-0.4c-0.2-0.1-0.5-0.2-0.8-0.2h-0.4v-0.4h6.7v0.4c-0.5,0-0.9,0.1-1.1,0.2
			c-0.2,0.1-0.4,0.3-0.5,0.5c-0.1,0.1-0.1,0.4-0.1,0.9v2.9c-0.9,0.4-1.8,0.7-2.7,0.9s-1.9,0.3-2.9,0.3c-1.3,0-2.4-0.2-3.2-0.5
			c-0.9-0.4-1.6-0.8-2.3-1.4c-0.7-0.6-1.2-1.2-1.5-2c-0.5-0.9-0.7-2-0.7-3.1c0-2.1,0.7-3.8,2.2-5.2c1.4-1.4,3.3-2.1,5.5-2.1
			c0.7,0,1.3,0.1,1.8,0.2c0.3,0.1,0.8,0.2,1.4,0.5c0.7,0.3,1.1,0.4,1.2,0.4c0.2,0,0.4-0.1,0.5-0.2c0.2-0.1,0.3-0.4,0.4-0.8
			L214.3,20.4L214.3,20.4z"/>
		<path class="st0" d="M220.8,24.7c0.8,0,1.6,0.2,2.3,0.6s1.2,1,1.6,1.8c0.4,0.8,0.6,1.6,0.6,2.6c0,1.3-0.3,2.5-1,3.4
			c-0.8,1.1-2,1.6-3.4,1.6s-2.5-0.5-3.3-1.5s-1.2-2.2-1.2-3.5c0-1.4,0.4-2.5,1.2-3.5C218.4,25.2,219.5,24.7,220.8,24.7L220.8,24.7z
			 M220.9,25.4c-0.3,0-0.6,0.1-0.9,0.4c-0.2,0.3-0.4,0.8-0.5,1.5c-0.1,0.8-0.1,1.8-0.1,3.2c0,0.7,0,1.4,0.1,2
			c0.1,0.5,0.2,0.8,0.5,1.1c0.2,0.3,0.5,0.4,0.8,0.4s0.6-0.1,0.8-0.3c0.3-0.2,0.4-0.5,0.5-1c0.1-0.6,0.2-1.9,0.2-3.9
			c0-1.1-0.1-1.9-0.2-2.4c-0.1-0.4-0.3-0.7-0.6-0.9C221.4,25.5,221.2,25.4,220.9,25.4L220.9,25.4z"/>
		<path d="M229.8,34.8l-3.2-7.3c-0.4-0.9-0.7-1.4-0.9-1.7c-0.2-0.2-0.4-0.3-0.7-0.4V25h5v0.4c-0.3,0-0.5,0.1-0.6,0.2
			c-0.2,0.1-0.2,0.3-0.2,0.5s0.1,0.7,0.4,1.4l1.6,3.5l1.2-3.1c0.4-0.9,0.5-1.5,0.5-1.9c0-0.2-0.1-0.4-0.2-0.5
			c-0.2-0.1-0.4-0.2-0.8-0.2V25h3.1v0.4c-0.3,0-0.5,0.2-0.7,0.3c-0.2,0.2-0.5,0.7-0.8,1.6l-3.2,7.4L229.8,34.8L229.8,34.8z"/>
		<path class="st0" d="M242.4,29.4h-5.2c0.1,1.3,0.4,2.2,1,3c0.5,0.6,1,0.8,1.7,0.8c0.4,0,0.8-0.1,1.1-0.3s0.7-0.6,1.1-1.2l0.3,0.2
			c-0.5,1-1.1,1.8-1.7,2.2c-0.6,0.4-1.3,0.6-2.2,0.6c-1.4,0-2.5-0.5-3.2-1.6c-0.6-0.9-0.9-2-0.9-3.2c0-1.6,0.4-2.8,1.3-3.8
			c0.9-0.9,1.9-1.4,3-1.4c1,0,1.8,0.4,2.5,1.2C242,26.7,242.3,27.9,242.4,29.4L242.4,29.4z M239.9,28.7c0-1.1-0.1-1.8-0.2-2.2
			c-0.1-0.4-0.3-0.7-0.5-0.9c-0.1-0.1-0.3-0.2-0.6-0.2c-0.4,0-0.6,0.2-0.9,0.5c-0.4,0.6-0.6,1.4-0.6,2.5v0.4L239.9,28.7L239.9,28.7z
			"/>
		<path d="M246.9,25v2.1c0.6-1,1.2-1.6,1.6-1.9c0.5-0.3,0.9-0.5,1.4-0.5c0.4,0,0.7,0.1,0.9,0.4c0.2,0.2,0.3,0.6,0.3,1
			c0,0.5-0.1,0.8-0.3,1.1c-0.2,0.2-0.5,0.4-0.8,0.4c-0.4,0-0.7-0.1-0.9-0.3c-0.3-0.2-0.4-0.4-0.5-0.4s-0.1-0.1-0.2-0.1
			c-0.2,0-0.4,0.1-0.6,0.2c-0.3,0.2-0.5,0.6-0.6,1c-0.2,0.7-0.3,1.4-0.3,2.2v2.2V33c0,0.4,0,0.6,0.1,0.7c0.1,0.2,0.2,0.3,0.4,0.4
			c0.2,0.1,0.4,0.1,0.8,0.2v0.4H243v-0.4c0.4,0,0.7-0.1,0.8-0.3s0.2-0.7,0.2-1.5V27c0-0.5,0-0.9-0.1-1c-0.1-0.2-0.2-0.3-0.3-0.4
			s-0.4-0.1-0.7-0.2V25H246.9L246.9,25z"/>
		<path d="M255.6,25v1.2c0.5-0.5,0.9-0.9,1.4-1.1c0.4-0.2,0.9-0.4,1.4-0.4c0.6,0,1.1,0.2,1.5,0.5s0.7,0.8,0.8,1.3
			c0.1,0.4,0.2,1.1,0.2,2.2v3.7c0,0.7,0.1,1.2,0.2,1.4s0.4,0.3,0.8,0.3v0.4h-4.8v-0.4c0.4,0,0.6-0.2,0.8-0.4
			c0.1-0.2,0.2-0.6,0.2-1.3v-4.2c0-0.8,0-1.3-0.1-1.5s-0.2-0.4-0.3-0.5c-0.1-0.1-0.3-0.2-0.5-0.2c-0.6,0-1.1,0.4-1.6,1.2v5.1
			c0,0.7,0.1,1.2,0.2,1.3c0.1,0.2,0.4,0.3,0.7,0.4v0.4h-4.8V34c0.4,0,0.7-0.2,0.8-0.4c0.1-0.1,0.2-0.6,0.2-1.3V27
			c0-0.7-0.1-1.2-0.2-1.3c-0.1-0.2-0.4-0.3-0.8-0.3V25H255.6L255.6,25z"/>
		<path d="M266.6,25v1.2c0.5-0.6,1-1,1.4-1.2s0.9-0.3,1.5-0.3s1.1,0.1,1.5,0.4s0.7,0.7,1,1.3c0.5-0.6,1.1-1,1.5-1.3
			c0.5-0.3,1-0.4,1.6-0.4c0.7,0,1.2,0.2,1.6,0.5s0.7,0.7,0.8,1.1c0.2,0.5,0.2,1.2,0.2,2.2v3.9c0,0.7,0.1,1.2,0.2,1.4
			s0.4,0.3,0.8,0.3v0.4h-4.9v-0.4c0.4,0,0.7-0.2,0.8-0.4c0.1-0.2,0.2-0.6,0.2-1.3v-4.1c0-0.8,0-1.4-0.1-1.6s-0.2-0.4-0.3-0.5
			c-0.1-0.1-0.3-0.2-0.5-0.2c-0.3,0-0.6,0.1-0.9,0.3c-0.3,0.2-0.6,0.5-0.9,0.9v5.1c0,0.7,0.1,1.1,0.2,1.3c0.2,0.3,0.4,0.4,0.9,0.4
			v0.4h-4.9V34c0.3,0,0.5-0.1,0.6-0.2c0.2-0.1,0.3-0.3,0.3-0.4c0.1-0.2,0.1-0.5,0.1-1.1v-4.1c0-0.9,0-1.4-0.1-1.6s-0.2-0.4-0.3-0.5
			c-0.2-0.1-0.3-0.2-0.5-0.2c-0.3,0-0.5,0.1-0.7,0.2c-0.3,0.2-0.7,0.6-1,1.1v5.1c0,0.7,0.1,1.1,0.2,1.3s0.4,0.3,0.8,0.4v0.4h-4.9V34
			c0.4,0,0.7-0.2,0.9-0.4c0.1-0.1,0.2-0.6,0.2-1.3V27c0-0.7-0.1-1.2-0.2-1.3c-0.1-0.2-0.4-0.3-0.8-0.3V25H266.6L266.6,25z"/>
		<path class="st0" d="M287.1,29.4h-5.2c0.1,1.3,0.4,2.2,1,3c0.5,0.6,1,0.8,1.7,0.8c0.4,0,0.8-0.1,1.1-0.3c0.3-0.2,0.7-0.6,1.1-1.2
			l0.3,0.2c-0.5,1-1.1,1.8-1.7,2.2s-1.3,0.6-2.2,0.6c-1.4,0-2.5-0.5-3.2-1.6c-0.6-0.9-0.9-2-0.9-3.2c0-1.6,0.4-2.8,1.3-3.8
			c0.9-0.9,1.9-1.4,3-1.4c1,0,1.8,0.4,2.5,1.2C286.6,26.7,287,27.9,287.1,29.4L287.1,29.4z M284.6,28.7c0-1.1-0.1-1.8-0.2-2.2
			c-0.1-0.4-0.3-0.7-0.5-0.9c-0.1-0.1-0.3-0.2-0.6-0.2c-0.4,0-0.6,0.2-0.9,0.5c-0.4,0.6-0.6,1.4-0.6,2.5v0.4L284.6,28.7L284.6,28.7z
			"/>
		<path d="M291.3,25v1.2c0.5-0.5,0.9-0.9,1.4-1.1c0.4-0.2,0.9-0.4,1.4-0.4c0.6,0,1.1,0.2,1.5,0.5s0.7,0.8,0.8,1.3
			c0.1,0.4,0.2,1.1,0.2,2.2v3.7c0,0.7,0.1,1.2,0.2,1.4s0.4,0.3,0.8,0.3v0.4h-4.8v-0.4c0.4,0,0.6-0.2,0.8-0.4
			c0.1-0.2,0.2-0.6,0.2-1.3v-4.2c0-0.8,0-1.3-0.1-1.5s-0.2-0.4-0.3-0.5c-0.1-0.1-0.3-0.2-0.5-0.2c-0.6,0-1.1,0.4-1.6,1.2v5.1
			c0,0.7,0.1,1.2,0.2,1.3c0.1,0.2,0.4,0.3,0.7,0.4v0.4h-4.8V34c0.4,0,0.7-0.2,0.9-0.4c0.1-0.1,0.2-0.6,0.2-1.3V27
			c0-0.7-0.1-1.2-0.2-1.3c-0.1-0.2-0.4-0.3-0.8-0.3V25H291.3L291.3,25z"/>
		<path d="M301.7,21.6V25h2.2v1h-2.2v5.8c0,0.5,0,0.9,0.1,1.1c0.1,0.2,0.1,0.3,0.3,0.4c0.1,0.1,0.2,0.1,0.4,0.1c0.4,0,0.9-0.3,1.2-1
			l0.3,0.2c-0.5,1.3-1.4,1.9-2.7,1.9c-0.6,0-1.1-0.2-1.5-0.5s-0.7-0.7-0.8-1.1c-0.1-0.2-0.1-0.8-0.1-1.9v-5h-1.2v-0.4
			c0.8-0.6,1.6-1.2,2.2-1.9c0.6-0.7,1.1-1.4,1.6-2.2L301.7,21.6L301.7,21.6z"/>
	</g>
	<path d="M92.2,21.2c0.1,0.2,0.1,0.3,0,0.5C92,22,91.7,22.1,91.4,22c-0.2-0.1-0.3-0.3-0.3-0.5c0.1-0.2,0.3-0.5,0.5-0.6
		C91.8,20.9,92,21.1,92.2,21.2L92.2,21.2z"/>
	<path d="M91.5,28.9c0,0.3-0.2,0.5-0.4,0.6c-0.2,0.1-0.5,0-0.7-0.2c-0.2-0.1-0.1-0.3-0.1-0.5c0.2-0.2,0.4-0.3,0.6-0.4
		C91.1,28.6,91.3,28.7,91.5,28.9L91.5,28.9z"/>
	<path d="M93.5,29.2c-0.1,0.3-0.3,0.5-0.6,0.6c-0.2,0-0.5-0.1-0.5-0.4c0-0.2,0.1-0.4,0.3-0.5C93,28.7,93.4,28.9,93.5,29.2L93.5,29.2
		z"/>
	<path d="M92.2,30.3c-0.1,0.3,0,0.6-0.3,0.8c-0.3,0.1-0.6,0-0.7-0.1c-0.2-0.2-0.2-0.4-0.1-0.7c0.2-0.2,0.4-0.4,0.7-0.4
		C91.9,30,92,30.2,92.2,30.3L92.2,30.3z"/>
	<path d="M93.8,38.2c0.1,0.3-0.2,0.5-0.4,0.7c-0.2,0.1-0.4,0-0.6-0.1c0-0.2-0.2-0.3-0.2-0.5c0.1-0.3,0.4-0.4,0.7-0.4
		C93.5,38,93.6,38.1,93.8,38.2L93.8,38.2z"/>
	<path d="M95.9,38.1c0.2,0.3,0,0.5-0.1,0.7s-0.4,0.3-0.6,0.2c-0.2-0.2-0.4-0.3-0.5-0.6c0-0.3,0.3-0.4,0.5-0.5
		C95.5,37.8,95.6,38.1,95.9,38.1L95.9,38.1z"/>
	<path d="M92.1,39.8c-0.1,0.3-0.3,0.4-0.5,0.5S91.2,40.1,91,40s-0.1-0.4,0-0.6C91.3,39,92.1,39.2,92.1,39.8L92.1,39.8z"/>
	<path d="M94.5,40c-0.1,0.3-0.4,0.5-0.7,0.5c-0.3-0.1-0.6-0.3-0.4-0.7c0.1-0.1,0.2-0.3,0.4-0.3C94.1,39.4,94.4,39.7,94.5,40L94.5,40
		z"/>
	<path d="M95.4,41.3c0.1,0.4-0.5,0.2-0.7,0.3c-1.3,0.8-3,0.2-4.2-0.3c0.1-0.4,0.6-0.2,0.8-0.4C92.6,40.1,93.9,41.2,95.4,41.3
		L95.4,41.3L95.4,41.3z"/>
	<path d="M92.5,43.4c0.3,0,0.4-0.4,0.7-0.5c0.3-0.1,0.6,0.1,0.7,0.3c0.1,0.4-0.2,0.6-0.4,0.7c-0.2,0.2-0.7-0.2-0.7,0.2
		c0.2,0.2,0.4,0.4,0.4,0.6c-0.1,0.1-0.3,0.1-0.4,0c-0.9-0.4-1.9-1-2.2-1.9c-0.1-0.3-0.7-0.5-0.4-0.8C91.3,42.2,92,42.9,92.5,43.4
		L92.5,43.4z"/>
	<path d="M95.5,42.5c0.2,0.2,0.1,0.4,0,0.6c-0.2,0.3-0.6,0.2-0.9,0.2c-0.2-0.2-0.3-0.3-0.2-0.6c0.1-0.2,0.2-0.3,0.5-0.4
		C95.1,42.2,95.3,42.3,95.5,42.5L95.5,42.5z"/>
	<path d="M95.9,44.1c0.1,0.4-0.2,0.6-0.4,0.8c-0.3,0.1-0.6-0.1-0.7-0.3c-0.2-0.2,0-0.4,0-0.6c0.2-0.2,0.5-0.3,0.8-0.2
		C95.6,43.9,95.7,44,95.9,44.1L95.9,44.1z"/>
	<path d="M93.7,53c-0.3,0.4-0.2,1-0.4,1.4c-0.6,0.7-1.2,1.5-2.1,1.7c-0.2-0.3,0.2-0.6,0.4-0.9c0.4-0.9,1.1-2,2.1-2.4V53L93.7,53z"/>
	<path d="M3.9,53.7C3.9,53.9,4,54,4,54.1c-0.1,0.2-0.2,0.3-0.4,0.4c-0.3,0.1-0.6-0.1-0.7-0.4c0-0.3,0.1-0.5,0.3-0.7
		C3.4,53.3,3.7,53.5,3.9,53.7L3.9,53.7z"/>
	<path d="M96.7,54.5c-0.1,0.2-0.2,0.5-0.5,0.5s-0.6-0.1-0.7-0.3c-0.1-0.3,0.2-0.5,0.4-0.6C96.2,54,96.6,54.2,96.7,54.5L96.7,54.5z"
		/>
	<path d="M94.8,54.6c0,0.2-0.1,0.4-0.3,0.5c-0.2,0.1-0.6,0.1-0.7-0.1c-0.3-0.3-0.1-0.5,0.1-0.7C94.2,54.2,94.7,54.2,94.8,54.6
		L94.8,54.6z"/>
	<path d="M4.8,55.1c0.1,0.3-0.1,0.7-0.4,0.8c-0.3,0-0.6-0.2-0.7-0.4c0-0.3,0.1-0.6,0.3-0.7C4.4,54.7,4.6,54.9,4.8,55.1L4.8,55.1z"/>
	<path d="M96.1,56c0.1,0.2-0.1,0.3-0.2,0.5c-0.2,0.2-0.5,0.2-0.7,0.1C95,56.5,95,56.2,95,56c0.2-0.1,0.2-0.3,0.4-0.3
		C95.7,55.6,96,55.7,96.1,56L96.1,56z"/>
	<path d="M94.2,56.1c0.1,0.4-0.2,0.6-0.5,0.7c-0.1,0-0.3-0.1-0.3,0.1c0.8,0.4,1.3,1.1,1.9,1.7v0.3c-1.1,0-2.3-0.3-3.1-1.2
		c-0.2-0.2-0.6-0.2-0.8-0.4c0.4-0.4,1.2-0.3,1.7-0.3c0.4-0.4-0.5-0.8,0.1-1.1c0.2,0,0.3-0.2,0.6-0.2C93.9,55.8,94.1,55.9,94.2,56.1
		L94.2,56.1z"/>
	<path d="M77.7,67.4c-0.2,0.2-0.4,0.3-0.4,0.6c0.2,0.3,0.4,0.3,0.7,0.3c0.2-0.2,0.4-0.3,0.4-0.6C78.3,67.5,78,67.3,77.7,67.4z
		 M77.9,66.7c0.2-0.2,0.3-0.3,0.3-0.6c-0.1-0.3-0.4-0.5-0.7-0.4C77.3,65.9,77,66,77,66.3C77,66.8,77.5,66.8,77.9,66.7z M80.3,56.1
		c-0.1,0.3,0.2,0.5,0.3,0.7c0.2,0.1,0.5,0.1,0.7-0.1c0-0.2,0.2-0.3,0.2-0.5C81.4,55.7,80.5,55.6,80.3,56.1z M78.7,64.3h-0.2
		c-0.1,1.3,0.8,2.2,1.7,3h0.1c0.2,0.1,0.2-0.1,0.2-0.2C80.5,65.8,79.5,65,78.7,64.3z M76.1,63.9c-0.2,0.2-0.4,0.2-0.3,0.6
		c0.2,0.2,0.4,0.3,0.6,0.3c0.2-0.2,0.4-0.2,0.4-0.5C76.7,64,76.4,63.8,76.1,63.9z M81.8,58.1c0.1,0,0.3,0,0.3,0.1
		c0.3-0.1,0.5-0.3,0.6-0.7c-0.1-0.4-0.6-0.4-0.8-0.4c-0.2,0-0.3,0.3-0.4,0.4C81.4,57.8,81.5,58,81.8,58.1z M89.3,52.4
		c-1.2,0.5-2.3,1.8-2.8,3c0.2,0.2,0.4-0.1,0.6-0.1c1.3-0.5,1.9-1.8,2.6-2.9C89.6,52.4,89.4,52.4,89.3,52.4z M89,56.3
		c0.3-0.2,0.5-0.5,0.4-0.8c-0.2-0.3-0.8-0.5-1.1-0.1c-0.2,0.2-0.1,0.5,0,0.7C88.6,56.2,88.7,56.4,89,56.3z M89.9,57.4
		c-0.2,0.1-0.5,0.2-0.6,0.4c-0.2,0.3,0.1,0.5,0.2,0.7c0.3,0.1,0.7,0.1,0.9-0.2c0.1-0.2,0.2-0.5,0.1-0.7
		C90.3,57.5,90.1,57.3,89.9,57.4z M79.6,57c-0.1,0.3-0.3,0.5,0,0.8c0.2,0.1,0.4,0.3,0.7,0.2c0.2-0.1,0.6-0.4,0.5-0.7
		C80.5,57,79.9,56.6,79.6,57z M90.2,54.2c-0.3,0.1-0.5,0.3-0.5,0.6c0.2,0.3,0.5,0.7,1,0.5c0.1-0.1,0.4-0.3,0.4-0.5
		C90.8,54.4,90.6,54.1,90.2,54.2z M89.3,59.8c-0.4-0.9-1.1-1.7-1.8-2.3c-0.2-0.1-0.6-0.4-0.8-0.2c0.3,0.9,0.9,1.8,1.6,2.5
		c0.5,0.1,0.9,0.7,1.4,0.4C89.8,60.1,89.5,59.9,89.3,59.8z M83.3,62.7c-0.1-0.8-0.4-1.6-0.8-2.2l-0.9-0.9c-0.3-0.1-0.5-0.7-0.8-0.4
		c0,0.1,0,0.2,0.1,0.3c0.5,1.4,0.8,2.8,2.2,3.8h0.1C83.5,63.1,83.3,62.9,83.3,62.7z M79.1,62.3c-0.1,0.2-0.4,0.4-0.2,0.6
		c0.1,0.2,0.2,0.4,0.4,0.4c0.2,0.1,0.5,0.1,0.7-0.1c0.1-0.2,0.2-0.3,0.2-0.6C80,62.2,79.4,62,79.1,62.3z M80,60.7
		c-0.2,0.1-0.4,0.1-0.5,0.3c0,0.2,0,0.5,0.3,0.6c0.1,0.2,0.4,0.2,0.6,0c0.2-0.1,0.3-0.4,0.2-0.7C80.5,60.7,80.3,60.7,80,60.7z
		 M80.9,62.3c-0.4,0.1-0.5,0.5-0.4,0.8c0.1,0.1,0.2,0.3,0.4,0.2c0.4,0.2,0.5-0.2,0.7-0.4c0.1-0.1,0-0.3-0.1-0.4
		C81.3,62.5,81.1,62.2,80.9,62.3z M13,24.4c0.2-0.1,0.5-0.3,0.5-0.6c-0.1-0.3-0.3-0.4-0.6-0.6c-0.2,0.1-0.4,0.1-0.5,0.3
		c-0.2,0.3-0.1,0.5,0,0.7C12.5,24.3,12.7,24.6,13,24.4z M19.6,27.8c0.3-0.1,0.5-0.3,0.5-0.7c-0.1-0.3-0.4-0.3-0.6-0.4
		c-0.2,0.1-0.6,0.4-0.4,0.7C19.1,27.6,19.3,27.7,19.6,27.8z M17.8,28.7c-0.1,0.3,0.2,0.4,0.3,0.6c0.3,0.2,0.6-0.1,0.8-0.3
		c0.1-0.2,0-0.4-0.1-0.5c-0.2-0.1-0.3-0.3-0.6-0.2C18.1,28.4,18,28.6,17.8,28.7z M14.9,22.5c0.2-0.2,0.5-0.3,0.4-0.7
		c-0.1-0.3-0.6-0.6-0.9-0.3c-0.1,0.2-0.3,0.4-0.1,0.6C14.4,22.4,14.6,22.6,14.9,22.5z M17.4,27.9c0.2,0.3,0.5,0.1,0.8-0.1
		c0.1-0.2,0.1-0.5-0.1-0.7c-0.3-0.3-0.6-0.1-0.8,0.2C17,27.5,17.2,27.7,17.4,27.9z M48.5,6.6l-0.2,2.9l2.2-1.9l2.1,1.9l-0.2-2.9
		l2.9-0.5L53,4.4l1.4-2.5l-2.8,0.8L50.5,0l-1.1,2.7l-2.8-0.8L48,4.4l-2.4,1.7L48.5,6.6z M19.5,28.9c0.2,0.2,0.4,0.5,0.7,0.4
		c0.2-0.1,0.5-0.3,0.5-0.6c-0.1-0.3-0.5-0.6-0.8-0.5C19.6,28.4,19.5,28.7,19.5,28.9z M46,12.4h9.2c0.4,0,0.8-0.3,0.8-0.8
		c0-0.4-0.3-0.8-0.8-0.8H46c-0.4,0-0.8,0.4-0.8,0.8C45.3,12,45.6,12.4,46,12.4z M55,11h0.3c0.6,0,0.6,1.1,0,1.1
		C54.8,12.1,54.1,11,55,11z M51.2,11h0.9c0.5,0,1.3,1.1,0.4,1.1h-0.9C51.1,12.1,50.3,11,51.2,11z M47.4,11h0.9
		c0.5,0,1.3,1.1,0.4,1.1h-0.9C47.4,12.1,46.5,11,47.4,11z M13.1,22.6c0.2-0.1,0.3-0.3,0.3-0.6c-0.1-0.2-0.3-0.5-0.7-0.4
		c-0.2,0.1-0.4,0.4-0.3,0.7C12.6,22.5,12.8,22.7,13.1,22.6z M13.7,23.9c0.2,0.2,0.3,0.5,0.7,0.4c0.1-0.2,0.5-0.3,0.3-0.6
		c-0.2-0.3-0.3-0.5-0.7-0.4C13.9,23.4,13.7,23.6,13.7,23.9z M13.9,26.6c0.2,0,0.3-0.2,0.2-0.3c-0.6-0.5-0.8-0.9-1.3-1.5
		c-0.4-0.5-1-0.7-1.5-1.1c-0.2,0-0.6-0.2-0.7,0.1C11.3,25,12.3,26.5,13.9,26.6z M11.2,22.1c-0.2,0.1-0.4,0.4-0.4,0.8
		c0.2,0.3,0.4,0.5,0.8,0.4c0.2-0.2,0.5-0.4,0.4-0.8C11.8,22.2,11.5,22,11.2,22.1z M11.5,21.4c0.3-0.1,0.3-0.4,0.4-0.7
		c-0.1-0.2-0.3-0.3-0.5-0.4c-0.2,0-0.5,0.1-0.6,0.3c-0.1,0.2-0.1,0.5,0.1,0.7C11,21.4,11.3,21.4,11.5,21.4z M80.9,26.1
		c0.4-0.4,0.2-1.2,0.3-1.8c-0.1-0.8-0.3-1.6-0.6-2.3c-0.1-0.2-0.1-0.5-0.3-0.4c-0.2,1.1-0.7,2.4-0.1,3.4
		C80.4,25.5,80.4,26,80.9,26.1z M13.5,21.6c0.2,0,0.1,0.3,0.3,0.1c-0.2-0.7-0.2-1.7,0-2.5c-0.1-0.6-0.4-1.2-0.9-1.5
		c-0.1-0.1-0.2,0-0.3,0.1C12.8,19,12.3,20.7,13.5,21.6z M74.5,63.6c-0.2,0.1-0.3,0.2-0.4,0.3c-0.1,0.2-0.1,0.5,0.2,0.6
		c0.2,0.1,0.6,0.2,0.7,0s0.3-0.3,0.2-0.5C75.1,63.8,74.8,63.6,74.5,63.6z M88.6,22.4c-0.2,0.2-0.4,0.4-0.3,0.8
		c0.1,0.3,0.4,0.4,0.7,0.4c0.3-0.1,0.4-0.4,0.5-0.8C89.3,22.6,88.9,22.3,88.6,22.4z M89.8,22.2c0.3,0.1,0.5-0.2,0.7-0.3
		c0-0.2,0.2-0.5,0-0.6s-0.3-0.2-0.6-0.2c-0.3,0.1-0.4,0.4-0.4,0.7C89.4,22,89.6,22,89.8,22.2z M86.5,31c0.4,0.3,0.9,0.4,1.2,0.7
		c0.7,0.6,1.8,0.5,2.5,0.1c0-0.1,0.1-0.3,0-0.3c-1,0-1.7-0.9-2.6-1C87.2,30.6,86.6,30.6,86.5,31z M90.5,20.2
		c0.2-0.2,0.6-0.5,0.4-0.8C90.8,19,90.4,19,90.1,19c-0.3,0.2-0.5,0.5-0.4,0.8C89.9,20.1,90.3,20.2,90.5,20.2z M88.9,29.5
		c-0.2,0.2-0.4,0.3-0.3,0.6c0.1,0.2,0.3,0.4,0.6,0.4c0.2-0.2,0.5-0.4,0.4-0.7C89.5,29.5,89.2,29.5,88.9,29.5z M84.2,27.1
		c0.4-0.2,0.6-0.4,0.5-0.9c-0.2-0.2-0.2-0.3-0.4-0.4c-0.1,0-0.3,0-0.4,0.1c-0.3,0.1-0.5,0.4-0.4,0.7C83.7,26.9,83.9,27.1,84.2,27.1z
		 M90.5,25.3c-1.1,1.2-2.1,2.3-2.7,3.6c0.3,0.2,0.7-0.1,1.1-0.3c1.2-0.7,1.9-2,1.9-3.4L90.5,25.3L90.5,25.3z M88.5,39.8
		c0.1,0.2,0.2,0.1,0.3,0.1c1.7-0.5,2.8-2.1,3.8-3.5c-0.2-0.1-0.6,0-0.8,0.1C90.1,36.9,89.6,38.6,88.5,39.8z M12.8,28
		c-0.6-0.5-1.1-1.1-1.7-1.5c-0.7-0.2-1.2-0.5-1.9-0.4c-0.2,0.1-0.6,0-0.7,0.3c1.1,0.3,1.8,1.2,2.9,1.6C11.9,28,12.4,28.2,12.8,28z
		 M88.7,21.7c0.6-1.2,0.4-2.9-0.4-3.9c-0.2-0.2-0.1-0.7-0.5-0.8c-0.6,1.3-0.1,2.8,0.6,3.9C88.4,21.2,88.4,21.7,88.7,21.7z
		 M84.4,27.6c-0.2,0.1-0.4,0.2-0.5,0.5c0,0.4,0.4,0.5,0.7,0.6c0.2-0.1,0.5-0.4,0.4-0.7C84.9,27.7,84.7,27.5,84.4,27.6z M85.7,28.3
		c0.1,0.3,0.4,0.4,0.7,0.4c0.1-0.1,0.2-0.2,0.3-0.3c0.2-0.2,0-0.4-0.1-0.6c-0.2-0.1-0.3-0.3-0.5-0.2C85.9,27.8,85.7,28,85.7,28.3z
		 M87.7,22.6c0.4-0.1,0.4-0.5,0.4-0.8c-0.2-0.2-0.4-0.3-0.6-0.3c-0.3,0.1-0.5,0.4-0.5,0.8C87.1,22.4,87.4,22.7,87.7,22.6z
		 M89.6,24.8c0.1-0.4,0.7-0.8,0.7-1.2c-1,0.2-1.9,0.8-2.5,1.6c-0.3,0.6-0.9,1.1-0.8,1.8c0.3,0,0.5-0.3,0.7-0.4
		C88.5,26.2,89.2,25.6,89.6,24.8z M85.7,26.4c0.3-1,0.3-2.1-0.2-3c-0.3-0.2-0.5-0.6-0.5-0.9c-0.1-0.2-0.2-0.4-0.4-0.2
		c-0.3,0.5-0.4,1.1-0.4,1.8c0.2,0.9,0.8,1.7,1.3,2.5L85.7,26.4z M21.2,62c-0.1-0.3-0.3-0.5-0.6-0.5c-0.2,0.1-0.4,0.1-0.5,0.3
		c-0.2,0.2,0.1,0.4,0.1,0.6c0.2,0.1,0.4,0.2,0.6,0.1C21,62.4,21.1,62.2,21.2,62z M21.6,64.3c0.2-0.2,0.4-0.5,0.3-0.8
		c-0.2-0.4-0.5-0.4-0.8-0.4c-0.4,0.2-0.4,0.6-0.4,0.9C20.8,64.4,21.2,64.4,21.6,64.3z M11.8,59.1c-0.1,0.3-0.7,0.6-0.5,0.9
		c1.2-0.1,2-1,2.5-2.1c0.2-0.4,0.6-0.7,0.6-1.1h-0.2C13.3,57.5,12.3,58.1,11.8,59.1z M21.2,56.4c0.1-0.2,0.5-0.3,0.3-0.6
		c-0.2-0.2-0.3-0.5-0.7-0.4c-0.2,0.1-0.2,0.2-0.4,0.3c-0.1,0.3,0.1,0.5,0.2,0.7C20.9,56.5,21.1,56.5,21.2,56.4z M20.2,57.8
		c0.1,0.2,0.3,0.3,0.6,0.4c0.3-0.1,0.5-0.2,0.6-0.5c-0.1-0.3-0.4-0.5-0.7-0.5C20.4,57.3,20.2,57.5,20.2,57.8z M21.2,59.3
		c-1.6,0.2-3.5,1.1-4,2.8c0.3,0.2,0.5-0.2,0.7-0.2c1.3-0.3,2.3-1.6,3.3-2.3V59.3z M19.2,57.5c-0.2-0.2-0.3-0.5-0.7-0.3
		c-0.2,0.2-0.4,0.3-0.4,0.6c0.1,0.2,0.3,0.4,0.6,0.4C19,58,19.2,57.8,19.2,57.5z M22.6,62.9c0.2-0.1,0.3-0.4,0.4-0.6
		c-0.1-0.3-0.4-0.6-0.7-0.5c-0.2,0.1-0.4,0.1-0.4,0.3c-0.1,0.2,0,0.4,0.1,0.6C22.1,62.8,22.3,63,22.6,62.9z M21,65.9L21,65.9
		c0.5,0.4,1-0.1,1.5-0.2c0.9-0.5,1.1-1.6,1.1-2.4C22.9,64.2,21.7,64.9,21,65.9z M26.6,65.1c-0.4-0.4-0.7-1-1.2-1.3
		c-0.1,0-0.2,0-0.2,0.1c0.3,1.1,0.2,2.4,0.9,3.3c0.3,0.3,0.6,0.9,1.1,0.8c-0.2-0.8,0-1.8-0.4-2.5C26.8,65.3,26.6,65.3,26.6,65.1z
		 M77,61.9c0.4-0.1,0.9-0.4,1.1-0.8c-0.1-0.1-0.3-0.1-0.4,0c-1.1-0.3-2.1-0.1-3.2,0.2c-0.2,0.2-0.5,0.1-0.5,0.3
		C75,61.8,75.9,62.3,77,61.9z M76,66.1c-1.2,0.5-2.1,1.6-2.4,2.8c0,0.1-0.1,0.4,0.1,0.5c0.8-0.9,2-1.5,2.4-2.6
		C76,66.5,76.5,66.2,76,66.1z M28.3,59.5C28.3,59.5,28.2,59.4,28.3,59.5l-1.5-0.3c-1-0.1-1.8,0.3-2.7,0.6c-0.1,0-0.2,0.2-0.2,0.3
		C25.3,60.9,27.1,60.3,28.3,59.5z M24.2,58.4c-0.2-0.2-0.3-0.3-0.6-0.2c-0.2,0.2-0.5,0.3-0.4,0.6s0.5,0.4,0.7,0.4
		C24.3,59.1,24.3,58.7,24.2,58.4z M5.6,39.7c0.2,0.1,0.3-0.1,0.5-0.1c0.1-0.2,0.2-0.3,0.2-0.5c-0.1-0.3-0.4-0.4-0.6-0.5
		c-0.3,0.1-0.5,0.3-0.6,0.6C5.3,39.4,5.4,39.6,5.6,39.7z M13.2,29.3c-0.2,0.1-0.5,0.1-0.5,0.3c-0.1,0.2,0,0.5,0.2,0.6
		s0.4,0.3,0.6,0.2c0.3-0.1,0.4-0.4,0.4-0.8C13.6,29.4,13.5,29.3,13.2,29.3z M11.6,30.7c0,0.2-0.1,0.5,0.1,0.6
		c0.2,0.1,0.4,0.2,0.6,0.1c0.1-0.1,0.4-0.2,0.2-0.4C12.5,30.6,11.9,30.2,11.6,30.7z M6,41.9c1.4,0.4,2.9,0,4-0.7l0.1-0.2L10,40.9
		c-1.5-0.2-3,0-4.2,0.8L6,41.9z M11.3,38c-0.7-1.1-1-2.3-2.1-3.1c-0.1,0-0.3,0-0.3,0.1c0,1.4,0.7,2.7,1.9,3.2
		c0.3-0.1,0.6,0.3,0.8,0.1C11.7,38.2,11.4,38.1,11.3,38z M12.7,37.8c0.9,0.9,2.3,1.4,3.6,0.9c0.2-0.1,0.5-0.1,0.4-0.3
		c-1.1-0.8-2.6-0.5-3.8-0.8C12.7,37.5,12.7,37.6,12.7,37.8z M11.9,57.3c0-0.5-0.6-0.7-0.9-0.4c0,0.2-0.2,0.3-0.2,0.5
		c0.1,0.3,0.3,0.3,0.6,0.4C11.6,57.7,11.8,57.5,11.9,57.3z M15,30.5c0.1-0.2,0.3-0.3,0.2-0.5c-0.2-0.4-0.8-0.6-1.1-0.2
		c-0.2,0.3,0,0.6,0.2,0.8C14.7,30.7,14.9,30.6,15,30.5z M13.1,31.1c-0.2,0.3-0.1,0.6,0.2,0.8c0.2,0.1,0.4,0.1,0.5-0.1
		s0.2-0.3,0.2-0.5C13.9,30.9,13.5,30.7,13.1,31.1z M9.7,40.1c0.1-0.2,0.3-0.3,0.2-0.5c-0.1-0.3-0.3-0.5-0.6-0.4
		c-0.2,0.1-0.4,0.3-0.4,0.6c0,0.2,0.3,0.3,0.4,0.4C9.4,40.2,9.5,40.1,9.7,40.1z M8.3,38.3c0.1,0.2,0.2,0.3,0.4,0.4
		c0.3,0.1,0.6,0,0.8-0.3c0-0.1,0-0.3-0.1-0.5c-0.2-0.2-0.3-0.2-0.6-0.2C8.5,37.8,8.3,38,8.3,38.3z M9.1,28.2
		c0.1,0.2,0.2,0.3,0.2,0.4c0.4,0.1,0.7,0,0.8-0.4c-0.1-0.3-0.4-0.5-0.7-0.5C9.2,27.8,9.2,28,9.1,28.2z M7.4,38.3
		c0.3,0,0.2-0.3,0.3-0.4c-0.1-0.3-0.3-0.4-0.6-0.5c-0.3,0.1-0.5,0.4-0.4,0.7C6.8,38.3,7.1,38.5,7.4,38.3z M10.7,38.9
		c-0.3,0.2-0.2,0.4-0.2,0.7c0.2,0.1,0.2,0.4,0.5,0.3c0.3,0,0.4-0.3,0.4-0.5C11.4,39.1,11,38.7,10.7,38.9z M10.4,43.7
		c0.2-0.5,0.6-0.8,0.7-1.3c0-0.2,0.2-0.3,0.2-0.5l-0.1-0.1c-1.3,0.6-2.2,1.5-3.1,2.6l0.1,0.3C9,44.4,9.8,44.4,10.4,43.7z M7.2,39.8
		c0.2,0.3,0.5,0.6,0.8,0.4c0.2-0.2,0.4-0.4,0.3-0.7C8.1,39.3,8,39,7.7,39C7.5,39.1,7.3,39.5,7.2,39.8z M37.5,42.4
		c0.3,0,0.6-0.2,0.6-0.5s-0.3-0.5-0.6-0.5s-0.6,0.2-0.6,0.5S37.2,42.4,37.5,42.4z M19.7,52.8c0.1,0.2,0.2,0.4,0.4,0.5
		c0.2,0,0.4,0,0.6-0.2s0.2-0.4,0.2-0.7c-0.2-0.3-0.5-0.3-0.7-0.3C19.9,52.4,19.7,52.6,19.7,52.8z M21.4,50.9
		C21.3,51,21.1,51,21,51.2s0,0.4,0.2,0.5c0.2,0.2,0.4,0.1,0.6,0c0.1-0.2,0.2-0.3,0.1-0.4C21.9,51.1,21.6,51,21.4,50.9z M12.1,54
		c-0.2,0.1-0.3,0.2-0.4,0.3c-0.2,0.2,0.2,0.4,0.2,0.6c0.2,0,0.4,0.1,0.6-0.1c0.2-0.1,0.2-0.4,0.2-0.6C12.5,54,12.2,54.1,12.1,54z
		 M15.3,54.8v-0.2c-1.2-0.8-2.1-2.1-3.7-2.1c-0.2,0.1,0,0.2,0,0.3c0.7,0.3,1.2,0.9,1.6,1.6C13.8,54.7,14.5,54.9,15.3,54.8z
		 M4.7,53.4c-0.1,0.2,0,0.6,0.3,0.7c0.2,0.1,0.5,0,0.7-0.1c0.2-0.3,0.1-0.5,0-0.7C5.4,52.9,4.9,53.1,4.7,53.4z M37,40.4
		c0-0.3-0.2-0.5-0.5-0.5S36,40.1,36,40.4s0.2,0.5,0.5,0.5C36.7,40.9,37,40.7,37,40.4z M35.7,41.2c-0.3,0-0.6,0.2-0.6,0.5
		s0.3,0.5,0.6,0.5s0.6-0.2,0.6-0.5C36.3,41.5,36,41.2,35.7,41.2z M21.7,53.1c0.2,0.2,0.3,0.4,0.5,0.3c0.2-0.2,0.5-0.2,0.4-0.6
		c-0.1-0.2-0.4-0.4-0.7-0.3C21.9,52.7,21.6,52.8,21.7,53.1z M28.5,50.3c0.3-0.1,0.4-0.3,0.5-0.5c-0.1-0.2-0.3-0.4-0.6-0.5
		c-0.2,0.2-0.5,0.3-0.4,0.7C28,50.2,28.2,50.3,28.5,50.3z M19.6,50.6c-0.2,0.2-0.4,0.4-0.2,0.7c0.1,0.2,0.3,0.3,0.7,0.3
		c0.3-0.1,0.4-0.3,0.4-0.6C20.3,50.8,19.9,50.4,19.6,50.6z M80,50.1c-1.6-0.1-3.5-0.1-4.5,1.1l0.2,0.1h1.7
		C78.4,51.3,79.3,50.7,80,50.1L80,50.1L80,50.1z M79.5,53.3c0.3-0.2,0.6-0.4,0.5-0.8c-0.1-0.4-0.7-0.4-1-0.2
		c-0.1,0.2-0.3,0.3-0.2,0.5C79,53,79.2,53.3,79.5,53.3z M72.6,50.7c0.2,0.1,0.4,0.3,0.7,0.2c0.3-0.1,0.4-0.4,0.5-0.7
		c-0.2-0.6-1-0.6-1.2,0C72.6,50.3,72.5,50.5,72.6,50.7z M85,51.9c-1.7-0.4-3.4,0.3-4.5,1.5c-0.1,0.1,0,0.2,0.1,0.2
		c0.2,0,0.3-0.1,0.4-0.1c1.6-0.1,3.1-0.3,4.2-1.3C85.2,52.1,85,52,85,51.9z M100.7,42.3c-0.5-0.9-1.3-1.3-2.3-1.3
		c-0.8,0.1-1.4,0.6-1.7,1.3c-0.2,0.7,0.1,1.3,0.6,1.7c0.2,0.1,0.5,0.1,0.6-0.2c0.2-0.4-0.3-0.4-0.3-0.7c-0.1-0.4,0-0.8,0.3-1.1
		s0.8-0.2,1.2-0.2c0.4,0.3,0.8,0.5,0.9,0.9c0.2,0.5,0.2,1.1,0,1.7c-0.3,0.8-1.1,1.4-1.9,1.6c-2.6,0.4-30.9,0.3-30.9,0.3
		c-3.3,0.3-7.1-0.6-10,1.1c-1.3,0.6-2,2.1-2.3,3.4c-0.8,0.8-1.7,1.6-2.4,2.5l-0.1-0.1c0.2-0.8,0.5-1.4,0.7-2.2
		c0.5-0.6,0.5-1.5,0.8-2.2C55,47,56.1,45,58,43.7c0.8-1,2.1-0.8,3.3-0.8c1.3,0.6,2.8,0.8,4.3,0.6c0.1-0.1,0.1-0.1,0.1-0.2
		c-0.4-0.4-1.2-0.6-1.6-1c-1.2-0.6-2.4,0.2-3.7,0.1c-0.1-0.1-0.1-0.1-0.1-0.2c1.2-0.9,2.5-1.5,3.9-2.1c1.1-0.6,2.2-0.9,3.4-1.3
		c0.5,0,0.9-0.4,1.3-0.1c-0.9,1.8-1.8,3.8-3.2,5.3c-0.5,0-0.7,0.5-1.2,0.5c-0.3,0.3-0.7,0.1-1.1,0.2c-1,0.4-2.3,0.2-3,1.1
		c0.1,0.1,0.2,0.1,0.2,0.2c1.9,0,4,0.2,6,0.1c0.2-0.1,0.5-0.3,0.5-0.6c-0.3-0.5,0.1-1,0.3-1.4c0.2-0.8,0.7-1.2,0.9-1.9
		c0.7-1.3,1.4-2.5,2.1-3.8c0.1,0,0.1,0.1,0.3,0.1c1.4-0.5,3.2,0,4.8-0.1l0.2,0.2c0.2,1.5-0.1,3-0.3,4.5c-0.5,1.8-2.6,1.6-4.1,2
		c-0.4,0.3-1.1,0.1-1.1,0.8c1.8,0.4,3.9,0.2,5.8,0.1c0.3-0.1,0.4-0.4,0.5-0.7c0.1-0.4,0.5-0.8,0.3-1.2c-0.3-0.4,0-1.1-0.1-1.7
		c0.1-0.2,0.1-0.4,0-0.6c0.2-0.9,0.2-2,0.4-2.9c0.6,0.1,0.8,0.7,1.4,0.8c0.3-0.4-0.3-0.6-0.5-0.9c0.7-0.2,1.5,0,2.1,0.3l-0.3,0.3
		c-0.2,0.3,0.1,0.6,0.4,0.7c0.2,0.1,0.4-0.1,0.5-0.2c0.4-0.3,0-0.6,0.1-0.8c2.3,0.4,4.5,1,6.6,1.9c0.6,0.2,1.1,0.6,1.8,0.6
		c-0.7-0.6-1.6-0.9-2.4-1.3c-0.5-0.3-1.3-0.3-1.7-0.8c0.1-0.2,0.3-0.1,0.4-0.2c1.1-0.1,2-0.9,2.7-1.8c0.1-0.2,0.4-0.1,0.4-0.4
		c-0.3-0.3-0.7,0.1-1.1,0.1c-1.3,0.3-1.9,1.8-3.2,2.1c-1.6-0.4-3.2-0.8-4.8-1.2c-0.8-0.1-1.6-0.2-2.3-0.5c0-0.6,0.2-1.2,0.2-1.7
		c0.1-0.2,0.2-0.4,0.1-0.7c0.1-0.1,0.2-0.2,0.3-0.3l0.6-0.3c0.8-0.2,1.7,0,2.5,0c0.5,0.3,1.1,0.2,1.6,0.3c0.2-0.2,0.5-0.2,0.8-0.2
		c1-0.5,0.3-1.7,0.4-2.6c0.9-0.8,1.6-1.7,2.4-2.6c0-0.3-0.1-0.5-0.3-0.6c-0.2-0.1-0.5-0.1-0.6,0.1c-0.4,0.3,0,0.6,0,1
		c-0.4,0.5-1,0.9-1.4,1.2c0,0-0.1,0-0.3,0.1l-0.1-0.2c-0.1-0.2-0.2-0.4-0.3-0.6c-0.2-0.2-0.3-0.6-0.5-0.8c-0.5-1.4-1.6-2.2-2.4-3.3
		c-1.6-2.1-4.1-3.2-6.6-4s-4.9,0.3-7.2,1c-0.7-0.2-1-0.7-1.2-1.3c-0.1-1.2,0.1-2.4,0.6-3.3c0.1-0.8,0.6-1.4,0.8-2.1
		c0.6-1.8,1.2-3.5,1.3-5.4c0.1-1.2-0.8-2-1.7-2.5c-0.6-0.2-1.3-0.1-1.7,0.3c-0.4,0.8-1.3,1.4-2,1.8c-0.1,0.5,0.6,0.2,0.8,0.4
		c0.7,0.1,1.5-0.1,2,0.3c0.1,1.3-0.7,2.3-1.3,3.2c-1.1,1.6-2.2,3.2-2.8,4.9l0,0v-1.6l0,0l0,0H46.6c-0.7-0.3-1.3-1-2.1-1
		c-1.7-0.7-2.9,1.1-4.7,0.9c-0.2,0.1-0.2,0.3-0.3,0.5c-0.1,0.1-0.2,0-0.3,0c-0.1-0.8-0.3-1.4-0.4-2.2c-0.2-0.3-0.1-0.8-0.2-1.1
		c-1-2.7,2.4-0.7,3.1-2.3c0.6-1.4-1.2-1.5-1.7-2.5V10c-0.5-0.5-1-0.7-1.3-1.3c0.2-0.8,0.3-1.6,0.1-2.4c0-0.2-0.2-0.4-0.4-0.3
		c-0.6,0.8-1,1.5-1.6,2.3c-0.6-0.4-1.2-1-1.8-1.4c-0.5-0.1-0.9-0.5-1.4-0.3c-0.1,0.2,0,0.3,0.1,0.5c0,1.2,0.7,2.2,1.5,3.1l0.1,0.5
		c-0.6,1.3-0.4,2.8-0.6,4.1c-1.4,3.6-3.7,7-6.8,9.5c-1.8,2-3.9,3.9-4.2,6.7c-0.1,0.4,0.1,1-0.3,1.3c-1-0.4-2.1-0.9-2.9-1.5
		c-1.4-1-3.5-0.9-4.4-2.7c-0.4-0.7,0.1-1.4,0.4-2c1.1-1,0.9-2.8,0.3-4c-0.1,0-0.2,0.1-0.2,0.2c-0.1,1.8-1.6,3.1-1,5.2
		c0.1,0.6,0.4,1,0.6,1.5c-0.2-0.1-0.5-0.1-0.7-0.2c-0.7-0.1-1.4-0.4-2.1-0.3c-1.4,0.7-3.4-0.2-4.5,1.2c-0.2,0-0.4,0.1-0.4,0.3
		c0.7,0,1.3,0.2,2,0.2c1.1,0.2,1.8-0.7,2.6-1.1h0.2c0.3-0.3,0.8-0.1,1.2-0.2c2,0.2,3.5,1.2,5.1,2.1v0.1c-0.6,0.3-1.3,0.5-2,0.8
		c-0.7,0.5-1.5,1.2-1.7,2.1c-0.5,0.8,0.2,1.5,0.5,2.1c0,0.3,0.1,0.7,0.3,0.8c1-1.1,0.1-2.4,0.2-3.6c0.2-0.9,1.1-1.4,2-1.6
		c1.8-0.8,3.1,0.7,4.5,1.5c0,1.4,0.2,2.8-0.2,4.2c-0.4,0.2-1,0.3-1.5,0.2c-2.5,0.2-4.4,1.5-6.6,2.3c-1,0.3-2.2,0.3-3.2,0.7
		c0.8,0.2,1.6-0.1,2.4-0.1c3-0.4,5.4-2.8,8.7-2.4l0.1,0.1c-0.4,0.8-0.9,1.4-1.5,2c-0.1-0.3-0.1-0.6-0.4-0.8c-0.2-0.1-0.5,0-0.7,0.3
		c-0.1,0.2-0.1,0.3,0,0.5c0.2,0.3,0.4,0.3,0.7,0.4c-0.1,0.3-0.4,0.4-0.6,0.7c-0.9,1.5-2.6,0.9-3.7,1.9c-0.2,0.2-0.7,0.3-0.5,0.7
		c1.2,0.1,2.3-0.2,3.2-0.8c1.2-1.3,2.4-2.5,3.5-3.7c0.2,1-0.1,2-0.7,2.9c-0.3-0.2-0.5-0.4-0.8-0.5c-0.3,0.1-0.5,0.4-0.6,0.6
		c0.1,0.2,0.2,0.5,0.5,0.6c-1.1,0.7-2.4,0.8-3.6,1.2c-2.3,0.3-4.5,0.5-6.8,0.5c-1.1-0.1-2.3,0.3-3.4,0c-1.2,0.2-2.5-0.2-3.4,0.5
		c-0.1,0.2,0,0.3,0,0.5c1.4,0.9,3.4,0.2,5,0.5h12.3c0.9,0,1.8-0.1,2.5-0.5c1.6-0.9,2.5-2.5,3.3-4.1c0.3-0.6,0.5-1.2,0.7-1.9
		c0.3-1.1,1.3-1.8,2.3-1.9c0.2,1.6-0.2,3.3-0.5,4.8c-0.2,1-0.8,2-0.4,3c0.1,0.5,0.6,0.5,1,0.6C34.2,46,38,45.9,42,46.1
		c0.7,0.1,1.3,0.3,2.1,0.3c0.1-0.1,0.3-0.1,0.2-0.3c-0.1-0.3-0.3-0.8-0.7-0.9c-0.1-0.2-0.3-0.1-0.4-0.3c-2-1.1-4.4-0.5-6.7-0.5
		c-1.2,0.1-2.4,0.3-3.5-0.3c-0.5-0.6-0.1-2.4-0.1-2.4c0-0.4,0.5-2,1-3.4c0.9,0.3,3.3,1.7,3.3,1.7c1.1,0.4,2.1,1.1,3.1,1.7
		c4.2,2.4,7,6.2,8.9,10.6c0,0.3,0.3,0.7,0.1,1.1c-0.7-1-1.6-1.6-2.4-2.4c-0.2-1.5-1.1-2.9-2.4-3.5c-0.5-0.7-1.5-0.8-2.2-1L31,46.4
		c-9.2-0.1-17.6,0.3-26.8,0.1c-1.3,0-2.9-0.5-3.2-1.8c-0.2-0.5-0.2-1.3,0-1.7c0.3-0.6,1-0.8,1.6-0.8c0.5,0.1,0.8,0.5,1.1,0.9
		c0,0.4-0.3,0.8-0.5,1.1c0,0.1,0.2,0.4,0.4,0.3c0.4-0.2,0.7-0.6,0.8-1c0-0.2,0.1-0.5-0.1-0.7c-0.2-0.7-0.9-1.1-1.5-1.3
		c-0.8-0.1-1.6,0.2-2.1,0.7C0,42.8,0,44,0.2,44.8c0.5,1.4,2,2.3,3.4,2.5l30.3,0.1c3,0.2,6.3-0.3,9.3,0.3c1.1,0.3,2.2,1.2,2.5,2.4
		c0,0.1-0.1,0-0.2,0c-2.5-1.6-5.7-2.2-8.8-1.8c-1.2-0.1-2.4,0.4-3.5,0.7c-0.6,0.1-1.2-0.2-1.5-0.5c-1.1-1-3.1-0.9-4.5-0.6
		c0,0.1,0,0.2,0,0.2c1.5-0.1,2.4,1.2,3.8,1.3c0.3,0.1,0.6-0.3,0.8,0c-1.4,0.7-2.8,1.5-4.3,1.9c-0.5-0.1-0.7-0.5-1.1-0.8
		c-0.6-0.7-1.7-0.4-2.5-0.4c-0.3,0.1-0.5-0.1-0.7,0c0.2,0.5,0.8,0.8,1.3,1c0.8,0.3,1.7,0,2.4,0.4c-0.2,0.2-0.4,0.3-0.7,0.4
		c-1.5,0.6-2.7,1.9-4.3,1.8c-1.7,0.2-3.5-0.3-4.6-1.5c-0.5-1.2-1.8-1.9-3.1-1.8c-0.1,0.1-0.2,0.1-0.2,0.2c0.7,0.4,1.2,1.2,1.9,1.7
		c0.4,0.5,1.3,0,1.7,0.6c0.6,0.4,1.3,0.8,2,0.9c0.5,0.2,1.1,0.3,1.6,0.4L21,54.3c-2.8,0.9-6.1,1-9.3,0.9c-0.9,0-1.8-0.3-2.8-0.3
		c0.2,0.2,0.5,0.3,0.7,0.4c-0.2,0.2-0.5,0.2-0.8,0.3c-0.4,0.1-0.8,0.1-1.2,0.3c-0.5,0-0.9,0.2-1.3,0.3c-0.5,0.6-1.2,1.2-1.8,1.4
		c0,0.1,0,0.3,0.1,0.3c0.6-0.3,1.3-0.1,1.9-0.3c1-0.1,1.6-1.2,2.4-1.7c0.9-0.7,2.1-0.5,3.2-0.4c0.6,0.2-0.1,0.4,0.1,0.8
		c0.3,0.2,0.5,0.5,0.8,0.4c0.1-0.1,0.1-0.1,0.2-0.2c0.2-0.2,0.2-0.5,0-0.8c0.4-0.3,1,0,1.5-0.2c1.2,0,2.4-0.3,3.5-0.3
		c0.2,0,0.4-0.2,0.6,0c-0.1,0.3-0.4,0.3-0.3,0.6s0.4,0.4,0.6,0.5c0.3-0.1,0.6-0.3,0.5-0.8c-0.1-0.2-0.3-0.3-0.5-0.3
		c0.7-0.3,1.4-0.4,2.1-0.7c0.5-0.1,0.9-0.3,1.3-0.4c0.4,0,0.7-0.4,1.1-0.3c-0.2,0.5-0.4,1-0.7,1.5c-0.5,1.7-0.9,3.9,0,5.5
		c0.1,0,0.1,0,0.2-0.1c-0.7-1.7-0.3-3.6,0.3-5.1c0.4-2.7,3.2-3.5,5.1-4.5l0.1,0.1c-0.5,1.4-1.3,2.7-1.2,4.4c0.1,0.3-0.1,0.6,0,0.8
		c0.5-0.3,0.9-0.9,1.2-1.4c0.2-1.4-0.6-3.2,0.8-4.2c2.5-1,4.9-2.3,7.9-2.4c0.1,0.1,0.3-0.1,0.3,0.1c-0.6,0.7-1.5,1.3-1.8,2.2
		c-1,1.4-1,3.7-0.5,5.4c0.3,1-0.6,1.5-1,2.3c-0.2,0.3-0.2,0.7-0.4,1l0.6,0.1c0.5-0.6,1-1.3,1.1-2.1c0.1,0.3,0.3,0.6,0.6,0.6
		c0.2-0.3-0.2-0.6-0.2-0.9c0.5-0.3,0.7,0.3,1.1,0.5c0.7,0.2,1.2,0.4,1.9,0.4l0.2-0.2c-0.7-1.1-2.1-1.3-3.2-1.3
		c-0.6-1-0.6-2.3-0.6-3.6c0.1-0.7,0.2-1.3,0.6-1.9c0.2-0.4,0.6-0.8,0.9-1.2c0.6-0.5,1.3-0.9,2-1.1H39c0,0.1,0,0.1,0,0.1
		c-0.8,0.7-0.9,1.6-1.4,2.4c-0.5,0.8-0.8,1.8-0.3,2.7c0.2,0.4,0.1,1,0.5,1.3c0.4-0.6,0.4-1.3,0.7-1.9c-0.1-1-0.7-2-0.1-3
		c0.3-0.8,1-1.1,1.7-1.4c1.7-0.2,3.2,0.7,4.7,1.4c0.3,0.2,0.8,0.4,0.9,0.8c0,0.8-0.5,1.7-1.2,2.1c-0.8,0.5-2.1,0.6-2.8,0
		c-0.5-0.5-0.7-1.3-0.5-1.9c0.3-0.4,0.8-0.7,1.4-0.5c0.3,0.2,0.6,0.5,1,0.3c0.2-0.1,0.2-0.3,0.1-0.5c-0.3-0.2-0.5-0.7-0.9-0.7
		c-0.6-0.1-1.3-0.1-1.7,0.3c-0.7,0.6-0.9,1.4-0.7,2.2c0.2,1,1,1.7,1.9,2c1.4,0.3,2.9-0.1,3.8-1.3c0.4-0.4,0.5-0.8,0.7-1.3
		c1.5,0.9,2.6,2.5,3.2,4.1c0,0.5,0.2,1.1,0,1.6l1.1,0.1c-0.1-0.3,0-0.5,0.1-0.8c0.4-2.1,1.7-3.8,3.2-5.1c0.5-0.3,0.4,0.4,0.5,0.6
		c0.5,1.2,1.6,2,2.7,2.4c1.3,0.2,2.6-0.1,3.4-1.1c0.4-0.8,0.9-1.8,0.2-2.6c-0.4-0.5-1-0.8-1.7-0.8c-0.8,0-1.3,0.6-1.7,1.2
		c0,0.3,0,0.5,0.2,0.7c0.1,0,0.4,0,0.5-0.2c0.1-0.5,0.5-0.7,0.8-0.9s0.7,0,1,0.2c0.3,0.3,0.4,0.8,0.4,1.2c-0.1,0.6-0.5,1.2-1,1.5
		c-0.9,0.5-2.2,0.3-3-0.3c-0.4-0.4-0.6-0.9-0.9-1.4c-0.1-0.5-0.3-0.9,0-1.4c1.4-0.8,2.8-1.4,4.4-1.6c0.7,0.1,1.2,0.6,1.7,1
		c1.4,1.5-0.3,3.6,0.7,5.2c0.4-0.1,0.4-0.6,0.5-0.9c0.5-1.1-0.1-2.4-0.4-3.5c-0.4-0.7-0.6-1.3-1.2-1.8c0.2-0.1,0.2-0.1,0.4-0.1
		c0.7,0.4,1.4,0.9,1.9,1.6c0.9,1.5,1.4,3.2,1.2,5.1c-0.2,0.9-1.2,1.4-2,1.7c-0.3,0.3-0.7,0.6-0.8,1c0.4,0.2,0.9,0,1.3-0.2
		c0.6-0.2,0.9-1,1.3-1.3c0.1,0,0,0.1,0.1,0.2c0,0.3-0.2,0.8,0.2,0.9c0.2-0.4,0.2-1.1,0.3-1.6c0.4,0.4,0.5,1,0.6,1.6
		c0.3,0.6,0.7,1.3,1.5,1.4c0.2-0.3,0-0.6-0.1-0.8c-0.1-0.8-0.7-1.2-1.2-1.8c-1.1-1.5-0.6-3.9-1.4-5.5c-0.3-0.9-1-1.6-1.7-2.3
		l0.1-0.1c1.5,0,2.8,0.5,4.2,0.7c1.7,0.8,4.2,0.7,5,2.9c0.3,1.3,0.9,2.4,1.8,3.4l0.1-0.1c0.2-0.3,0.2-0.8,0-1.2
		c-0.2-1.6-1.6-1.9-2.3-3.3l0.1-0.1c0.7,0.2,1.5,0.4,2.3,0.7c2.5,0.7,4.2,3.1,4.5,5.7c0,2-0.4,3.7-1.2,5.4c-0.1,0.3-0.5,0.5-0.3,0.8
		c0.3-0.3,0.4-0.7,0.6-0.9c1-1.7,1.6-4.1,1-6.3c0-0.4-0.5-0.7-0.3-1.1c0.2,0.2,0.3,0.2,0.5,0.3c0.2-0.1,0.5-0.1,0.6-0.3
		c0-0.2,0.2-0.4,0-0.6c0,0-0.4,0-0.7,0c-0.2,0.2-0.3,0.4-0.4,0.7c-0.3-0.5-0.6-1.2-1.1-1.7l0.1-0.1c1.4,0.5,2.7,1.2,4.1,1.5
		c0.3,0.2,0.7,0.3,1.1,0.3c1.2,0.5,2.6,0.7,3.8,1c0.9-0.1,1.7,0.3,2.6,0.1v-0.1l0,0c-0.3-0.4-1.1,0-1.5-0.3
		c-2.1-0.2-4.2-0.8-6.1-1.5c0-0.1,0.2-0.1,0.2-0.1c0.3-0.2,0.5-0.4,0.5-0.8c-0.2-0.2-0.4-0.3-0.7-0.3c-0.2,0.1-0.4,0.3-0.5,0.5
		c0,0.2,0.3,0.5,0.5,0.6c-0.1,0.1-0.2,0-0.3,0c-1-0.4-1.9-0.8-2.8-1.3c-0.3-0.1-0.6-0.3-1-0.4c-0.7-0.3-1.4-0.7-2.1-1
		c-2-1-4.2-1.6-6.3-2.4c-0.5-0.1-0.9-0.3-1.3-0.4c-0.8-0.2-1.6-0.4-2.3-0.6C63,48,59.4,48,57.1,49.4c-0.4-0.1-0.6,0.5-0.8,0.1
		c0.7-1.7,2.6-2.3,4.3-2.4C73,47.3,84.7,47.2,97,47c1.4,0,2.8-0.5,3.6-1.8C101.1,44.5,101.1,43.2,100.7,42.3z M75.6,36.4l-0.1,1
		h-3.2c0-0.1-0.1-0.1-0.1-0.2c1.1-0.3,2.1-0.9,3.2-1.2L75.6,36.4z M72.4,34.9c0.2-0.3,0.4-0.5,0.6-0.8c0-0.3-0.1-0.4-0.3-0.7
		c0.2-0.2,0.6-0.2,0.8-0.2c0.8,0.5,1.6,1.2,1.7,2.1c-1.2,0.5-2.5,1.1-3.8,1.4C71.6,36.1,72,35.4,72.4,34.9z M61.4,27.4
		c1,1.6,2.2,3.5,4.1,4.2c1,0.8,2.2,1.8,3.6,1.1c0.7-0.2,0.8,0.8,1.1,1.2c0.4,1.2-0.5,2-0.5,3c-0.1,0.4-0.4,0.6-0.8,0.7
		C68.4,37.7,68,38,67.5,38c-4,1.6-8.2,3.2-11.5,6.4c0.2-0.4,0.3-0.8,0.3-1.3c-0.1-0.5,0-1-0.3-1.4c-0.1-0.2-0.3-0.6-0.2-0.8l3.9-2.5
		c1-0.5,1.7-1.9,1.7-3.6L61.4,27.4z M40.2,30.9c0.1,0.1,0.1,0.1,0.3,0c0.8-0.5,0.6-1.7,0.6-2.5c0.2-1-0.5-1.4-0.8-2.3l0,0v-7.2h3.4
		c0.3,0.1,0.5,0.3,0.8,0.3l0.2-0.3h16.1V35c-0.1,1.3-0.5,2.3-1.4,2.9l-8.2,5.2l0,0c-0.2,0.1-0.4,0.2-0.6,0.2c-0.2,0-0.5-0.1-0.6-0.2
		l-8.2-5.2c-0.9-0.6-1.3-1.6-1.4-2.9L40.2,30.9L40.2,30.9z M38.4,23.1c0.2-0.7,0.4-1.4,1.1-1.8c0.1,0.1,0.1,0.1,0.2,0.2l0,0v3.4
		C39.3,24.4,38.1,23.9,38.4,23.1z M44.4,43.8L44.4,43.8c-3.2-2.3-6.7-4.5-10.3-6.2c0.3-0.9,0.6-1.7,0.7-1.8c0.1-0.5,0.2-0.9,0.2-1.4
		c0.2-0.6,0.2-1.4,0.2-2.1c0.1-1,0.6-1.9,1-2.9c0.2-0.5,0.3-1,0.5-1.4c0.2-0.6,0.3-1.2,0.6-1.6c1,0.6,1.9,0.6,2.4,1.6v7
		c0,1.7,0.7,3.2,1.7,3.6l3.4,2.1C44.8,41.7,44.1,42.6,44.4,43.8z M49.2,50.4c-1-2.2-2.4-3.9-4-5.7c-0.1-0.3-0.3-0.5-0.2-0.8
		c0.6-0.6,0.7-1.7,0.4-2.4c-0.1-0.2-0.2-0.3-0.2-0.5l-0.3-0.2l4.8,3c0.2,0.2,0.5,0.3,0.8,0.3s0.5-0.1,0.7-0.3l1.6-1
		c-1.2,1.8,0.7,4.3-0.8,6v0.1c-0.4,0.6-0.7,1.1-1.2,1.5c-0.7-0.3-1-1.2-1.5-1.8c-0.7-0.7-0.7-2-0.3-2.9c0.3-0.9-0.2-1.7-0.3-2.5
		L48.4,43c-0.7,1-1,2.5-0.4,3.7c0.3,0.6,0.3,1.3,0.8,1.8c0.3,0.9,0.8,1.5,1.3,2.3c0.1,0.3-0.2,0.4-0.3,0.5
		C49.4,51.1,49.5,50.6,49.2,50.4z M51.3,53.9c-0.1,0.4-0.4,0.7-0.3,1.1l-0.1,0.1c0.1-0.5-0.4-0.8-0.2-1.3c-0.2-0.4-0.2-0.8-0.5-1.3
		s0.2-0.7,0.5-1.1c0.4,0.2,0.6,0.6,0.9,1C51.6,53,51.2,53.4,51.3,53.9z M51.1,50.9c1.1-1.3,1.9-2.9,2.2-4.6c0.2-0.2,0.1-0.6,0.3-0.8
		c-0.1-0.5,0.3-1,0-1.4c0.2-0.7-0.9-1.3-0.2-1.8l-0.1,0.1l2-1.3c-0.3,0.7-0.5,1.9-0.2,2.6c0.1,0.6,0.6,1.2,0.1,1.7
		c-1.5,1.8-2.3,4-3.3,6.1C51.4,51.6,51.2,51.2,51.1,50.9z M38.2,33c-0.3,1.2-1,2.9-0.1,4c0.3,0,0.3-0.4,0.3-0.6
		c0.6-1,0.7-2.3,0.4-3.5C38.7,32.6,38.3,32.7,38.2,33z M5.5,55.4c0,0.3,0.3,0.6,0.6,0.6c0.3,0,0.6-0.2,0.6-0.6
		c0-0.3-0.3-0.6-0.6-0.6C5.8,54.9,5.5,55.1,5.5,55.4z M6.4,54.3c0.2,0.3,0.5,0.6,0.9,0.4c0.4-0.1,0.3-0.5,0.2-0.8
		c-0.2-0.3-0.5-0.3-0.8-0.3C6.5,53.8,6.4,54,6.4,54.3z M8.9,54.2c0.3,0.2,0.8,0.7,1.2,0.3c-0.7-0.9-1-1.9-2-2.5
		c-0.2-0.1-0.5-0.2-0.7-0.3c-0.2,0.1-0.5-0.3-0.6,0C7.8,52.4,7.8,53.6,8.9,54.2z M34.1,59.4l-0.3,0.3C33.9,59.6,34,59.5,34.1,59.4z
		 M74.3,48.5c-1.5-0.4-3.1-0.1-4.2,0.8v0.2c1.2,0,2.3,0,3.3-0.5C73.6,48.7,74.3,48.8,74.3,48.5z M80.6,40.6
		c-0.2,0.1-0.3,0.3-0.5,0.4c0,0.2,0,0.4,0.2,0.5c0.2,0.2,0.5,0.2,0.7,0.1c0.1-0.2,0.5-0.3,0.3-0.6C81.2,40.7,80.9,40.6,80.6,40.6z
		 M79.1,39.8c-0.3,0.2-0.5,0.5-0.4,0.8c0.2,0.1,0.4,0.2,0.6,0.3c0.2-0.2,0.6-0.3,0.5-0.7C79.5,40,79.3,39.8,79.1,39.8z M12.1,43.4
		c0.2,0.2,0.4,0.3,0.7,0.2c0.2-0.1,0.4-0.3,0.3-0.6c-0.2-0.2-0.3-0.4-0.6-0.4C12.3,42.7,11.9,43,12.1,43.4z M81.5,42.5
		c0,0.2,0.2,0.4,0.3,0.5c0.4,1.3,1.8,1.9,2.8,2.5c0.1,0,0.2,0,0.3-0.1c-0.1-0.4-0.4-0.9-0.7-1.3c-0.1-0.3-0.4-0.5-0.6-0.8
		C83.1,42.9,82.3,42.3,81.5,42.5z M86.2,41.2c-0.1-0.3-0.5-0.3-0.7-0.3c-0.2,0.1-0.5,0.3-0.4,0.6s0.5,0.4,0.8,0.3
		C86.1,41.6,86.2,41.4,86.2,41.2z M72.3,40.5c-0.2,0-0.3,0.1-0.4,0.3s0,0.3,0,0.5c0.2,0.1,0.5,0.3,0.7,0.1c0.2-0.1,0.3-0.3,0.2-0.5
		C72.8,40.5,72.5,40.5,72.3,40.5z M70.2,40.6c-0.1,0.3,0.1,0.5,0.3,0.6c0.3,0.2,0.5-0.1,0.7-0.3c0-0.1,0.1-0.3-0.1-0.4
		C71,40.2,70.3,40.2,70.2,40.6z M70.9,39.1c-0.1,0.3,0.1,0.5,0.3,0.7c0.3,0.2,0.6-0.1,0.7-0.3c0-0.1,0-0.3,0-0.4
		C71.6,38.6,71.1,38.7,70.9,39.1z M86.3,43.1c0.2-0.2,0.5-0.2,0.5-0.6c-0.1-0.3-0.4-0.5-0.7-0.4c-0.2,0.2-0.5,0.3-0.4,0.6
		C85.8,42.9,86.1,43.1,86.3,43.1z M73.6,40.2c0.3-0.1,0.4-0.4,0.3-0.8c-0.2-0.2-0.3-0.3-0.6-0.3c-0.4,0.1-0.4,0.4-0.6,0.7
		C72.9,40,73.2,40.3,73.6,40.2z M82.5,41.4c0.2-0.1,0.5-0.2,0.5-0.5c-0.2-0.2-0.5-0.6-0.9-0.4c-0.1,0.2-0.2,0.3-0.2,0.5
		C82,41.3,82.2,41.6,82.5,41.4z M15.4,41.9c0.3-0.1,0.3-0.4,0.4-0.6c-0.2-0.3-0.5-0.6-0.8-0.4c-0.2,0.2-0.4,0.3-0.3,0.6
		C14.7,41.8,15.1,42,15.4,41.9z M87.1,43.5c-0.2,0.2,0,0.4,0,0.6c0.2,0.2,0.5,0.1,0.7,0.1c0.1-0.1,0.3-0.3,0.3-0.4
		C87.9,43.4,87.4,43,87.1,43.5z M12.8,42c0.2,0.1,0.5,0.1,0.6-0.1c0.1-0.2,0.2-0.3,0.2-0.5c-0.1-0.3-0.3-0.4-0.6-0.5
		c-0.2,0.1-0.3,0.2-0.5,0.3C12.3,41.6,12.6,41.8,12.8,42z M20,41.4c0-0.2,0.3-0.4,0.1-0.6c-0.2-0.2-0.3-0.3-0.6-0.3
		c-0.2,0-0.2,0.2-0.4,0.3C19,41,19,41.5,19.3,41.6C19.5,41.8,19.8,41.6,20,41.4z M14.1,42.2c-0.3,0.1-0.4,0.4-0.3,0.7
		c0.2,0.2,0.4,0.3,0.7,0.3c0.2-0.2,0.4-0.2,0.5-0.6c-0.1,0-0.1-0.1-0.1-0.2C14.7,42.2,14.4,42.2,14.1,42.2z M88.4,42.2
		c-0.1-0.3-0.3-0.5-0.6-0.5c-0.1,0.1-0.3,0.1-0.4,0.2c-0.2,0.2-0.2,0.4-0.1,0.6c0.1,0.2,0.3,0.3,0.6,0.3
		C88.1,42.7,88.3,42.4,88.4,42.2z M18.2,35.1c0.9,0.2,2,0,2.8-0.5c0.3-0.3,0.9-0.3,1.1-0.7c-0.1-0.2-0.2-0.1-0.3-0.2
		C20.2,33.3,19,33.9,18.2,35.1z M16.5,32.1c0.2-0.2,0.4-0.4,0.3-0.7c-0.2-0.3-0.8-0.6-1.1-0.1c-0.3,0.3,0,0.5,0.2,0.7
		C16.1,32.1,16.3,32.3,16.5,32.1z M19.2,33.2c0.2-0.2,0.4-0.3,0.3-0.7c-0.1-0.2-0.4-0.3-0.6-0.3c-0.2,0.2-0.4,0.3-0.3,0.6
		C18.8,33,18.9,33.3,19.2,33.2z M66.2,37.6c0.3,0,0.6-0.2,0.6-0.5s-0.3-0.5-0.6-0.5c-0.3,0-0.6,0.2-0.6,0.5S65.9,37.6,66.2,37.6z
		 M45.4,39.9c0,0.2,0.1,0.3,0.3,0.3s0.3-0.1,0.3-0.3c0-0.1-0.3-0.5-0.3-0.5L45.4,39.9z M62.5,38c0.3,0,0.6-0.2,0.6-0.5
		S62.8,37,62.5,37s-0.6,0.2-0.6,0.5C61.9,37.7,62.2,38,62.5,38z M63.3,38.5c0,0.3,0.3,0.5,0.6,0.5s0.6-0.2,0.6-0.5S64.2,38,63.9,38
		C63.5,38,63.3,38.2,63.3,38.5z M59.8,19.9c0.2,0,0.3-0.1,0.3-0.3L59.8,19c0,0-0.3,0.5-0.3,0.6S59.6,19.9,59.8,19.9z M50.2,42.7
		c0,0.2,0.1,0.3,0.3,0.3s0.3-0.1,0.3-0.3l-0.3-0.6C50.5,42.1,50.2,42.6,50.2,42.7z M55,39.9c0,0.2,0.1,0.3,0.3,0.3s0.3-0.1,0.3-0.3
		l-0.3-0.5C55.3,39.4,55,39.8,55,39.9z M59.7,26c0,0.2,0.1,0.3,0.3,0.3s0.3-0.1,0.3-0.3L60,25.4C60,25.4,59.7,25.9,59.7,26z
		 M65.5,36.4c0.4-0.9,0.4-2-0.1-2.9c-0.1-0.2-0.1-0.8-0.5-0.7c0,0.6-0.2,1.1-0.4,1.7c0.1,0.8,0.4,1.5,0.7,2.2L65.5,36.4z M59.7,32.3
		c0,0.2,0.1,0.3,0.3,0.3s0.3-0.1,0.3-0.3L60,31.8C60,31.8,59.7,32.2,59.7,32.3z M59,37.2c0,0.2,0.1,0.3,0.3,0.3s0.3-0.1,0.3-0.3
		l-0.3-0.5C59.3,36.7,59,37.1,59,37.2z M63.9,36.6c0.2-0.1,0.3-0.4,0.3-0.7c-0.2-0.3-0.6-0.4-0.8-0.2c-0.1,0.2-0.3,0.3-0.2,0.5
		C63.3,36.5,63.6,36.7,63.9,36.6z M61.3,63h-0.2c-0.4,0.5-0.8,0.9-1.8,0.7c-0.4-0.1-0.5-0.1-0.5-0.4l0.4-2.5
		c0.1-0.5,0.3-0.4,0.7-0.4v-0.1l-2.2-0.4V60c0.3,0.1,0.5,0.1,0.5,0.5L57.7,63c-0.1,0.3-0.2,0.3-0.6,0.3v0.1l3.6,0.7L61.3,63z
		 M50.7,62.7c-0.4-0.1-0.6-0.1-0.6-0.5v-1h0.2l1.3,1.7h1.2l0,0l1.3,0.2V63c-0.2,0-0.5-0.1-0.5-0.3c0-0.1,0.1-0.3,0.4-0.6l1.4,0.2
		c0.1,0.2,0.2,0.6,0.2,0.7c0,0.2-0.1,0.2-0.5,0.1v0.1l2,0.3v-0.1c-0.3,0-0.4-0.2-0.6-0.8l-1.1-3h-0.2l-1.8,2.7
		c-0.2,0.4-0.3,0.5-0.7,0.5c-0.1,0-0.1,0-0.2-0.1l-1.2-1.5c0.3-0.1,1-0.2,1-0.9c0-0.9-1.3-1-1.8-1h-2v0.1c0.4,0,0.6,0,0.5,0.5v2.4
		c0,0.4-0.1,0.4-0.6,0.5v0.1h2.1L50.7,62.7z M54.9,60.5l0.5,1.4l-1.2-0.2L54.9,60.5z M50.2,59.6c0-0.2,0-0.2,0.4-0.2
		c0.5,0,0.8,0.2,0.8,0.8c0,0.7-0.3,0.8-1.2,0.8V59.6z M44.6,60.6c0-0.9,0.7-1,1.1-1l0.3,2.8c0,0.4-0.1,0.5-0.6,0.5V63l2.3-0.2v-0.1
		c-0.5,0-0.6,0-0.7-0.4l-0.3-2.8c0.4,0,1.1-0.1,1.3,0.8h0.2l-0.1-1.1l-3.8,0.4l0.1,1.1L44.6,60.6z M61,64.2l2.2,0.5v-0.1
		c-0.3-0.1-0.6-0.2-0.5-0.5l0.5-2.5c0.1-0.4,0.4-0.3,0.7-0.2v-0.1l-2.2-0.5v0.1c0.3,0.1,0.6,0.1,0.5,0.5l-0.5,2.5
		C61.6,64.2,61.4,64.2,61,64.2L61,64.2z M42.3,62.1l0.5,0.1c0.4,0.1,0.8,0.1,0.8,0.5c0,0.1,0.1,0.6-0.6,0.8
		c-0.8,0.2-1.3-0.3-1.5-0.8h-0.2l0.3,1.3h0.2c0-0.1,0-0.2,0.1-0.2c0.2,0,0.5,0.1,1.1-0.1c1.1-0.3,1.4-1,1.3-1.4
		c-0.1-0.6-0.7-0.8-0.9-0.8l-1-0.2c-0.6-0.1-0.7-0.2-0.8-0.5s0.2-0.6,0.6-0.6c0.7-0.2,1.2,0.4,1.4,0.7h0.2l-0.2-1.1h-0.2
		c0,0.1,0,0.2-0.2,0.2s-0.5-0.1-1,0c-1.2,0.3-1.2,1-1.1,1.3C41,61.5,41.1,61.9,42.3,62.1z M32.7,65.4L32.7,65.4H34v-0.1
		c-0.2,0-0.5,0-0.5-0.2c0-0.1,0.1-0.3,0.2-0.7l1.4-0.2c0.1,0.2,0.4,0.5,0.4,0.7s-0.1,0.2-0.5,0.3v0.1l2-0.2V65
		c-0.3,0-0.4-0.1-0.8-0.7l-1.7-2.6h-0.2l-1.1,3.1C33.1,65.2,33.1,65.3,32.7,65.4z M34.2,62.8L35,64l-1.2,0.1L34.2,62.8z M37.7,37.8
		c-0.2,0.1-0.3,0.4-0.2,0.6c0.1,0.2,0.4,0.3,0.7,0.3c0.2-0.1,0.4-0.3,0.4-0.6C38.4,37.8,38,37.8,37.7,37.8z M36.3,59.6
		c-0.6-0.1-1,0.3-1.6,0.2l-1,0.2c-0.1,0-0.2,0-0.3,0c-0.5-1.3,1-2.1,0.5-3.3c-0.4-0.7-1.2-1.4-2.1-1.3c-1.1-0.1-2,0.5-2.5,1.3
		c-0.7,1.6,0.2,3.2,0.5,4.7c-0.1,0.5,0.5,1.1,0,1.5c-1-0.7-2.3-1.1-3.5-0.7c-0.4,0.2-1.1-0.1-1.2,0.4c1.3,0.7,3,0.6,4.5,0.6
		c0.2-0.1,0.3-0.1,0.5,0c0.1,0.8-0.2,1.9,0.3,2.6c0.6,0.8,1.5,0.9,2.4,1c2.9-0.1,5.4-0.9,8-1.6c0.4,0,0.7-0.3,1.2-0.3
		c1.4-0.3,2.9-0.6,4.4-0.6c-0.7,0.8-1,1.8-1.3,2.8c-0.4,0.8,0.7,1,1,1.4c-1,0.3-1.7,0.9-2.6,1.3c-2-0.1-3.7,0.7-5.5,0.9
		c0,0.4,0.7,0.3,0.7,0.7c-0.1,0.3-0.4,0.3-0.6,0.5c0,0.2,0,0.2,0.2,0.2c0.2-0.2,0.6-0.1,0.8-0.3c0.6,0,1.2-0.2,1.7-0.2
		c0.5-0.2,1.1-0.3,1.6-0.6c0.7-0.2,1.1-0.6,1.7-0.8c0.9,0,1.8-0.3,2.6-0.4V70c-0.7,1.2-1.5,2.4-2.2,3.4c-0.1,0.2,0,0.4,0.2,0.5
		c0.4,0.1,0.9,0,1.2-0.2c0.7-1.1,1.2-2.2,1.8-3.4c0.2-1.1,1-1.6,1.8-2.3c0.1-0.1,0.3-0.3,0.4-0.1c-0.6,0.7-1,1.4-1.5,2.2
		c-0.3,0.9-0.3,2,0.5,2.7c0.4,0.3,0.9,0.2,1.4,0.3c1.2-0.6,2.8,0.4,3.7-0.8c0.6-0.1,0.7,0.6,1,0.9c0.5,0.2,1.1,0.7,1.6,0.3
		c0-0.3-0.4-0.7-0.6-1c-0.4-0.7-0.8-1.2-1.2-1.8c-0.2-0.4-0.4-0.7-0.5-1.2c0.6,0.2,1.1,0.6,1.7,0.7c0.5,0.2,1.2,0.2,1.7,0.5
		c0.4,0.5,1,0.8,1.6,1.2c0.8,0.4,1.7,0.4,2.5,0.8c0.3,0,0.8,0.3,1,0c-0.1-0.2-0.3-0.3-0.5-0.3c-0.1-0.4,0.6-0.2,0.8-0.5
		c-0.1-0.2-0.2-0.2-0.4-0.2c-0.4-0.2-1.6-0.3-1.8-0.5c-0.4-0.1-0.7-0.2-1.1-0.3c-1.9,0-2.9-1.7-4.4-2.3c0.3-0.3,0.9-0.6,1.1-1
		c0.3-0.4,0.4-1.2,0.1-1.7c-0.3-1-1.5-0.8-2.2-1.4l0.1-0.1c1.2-0.1,2.3,0.2,3.4,0.4c3,0.4,5.8,1.5,8.9,1.6c1.7,0,3.9,0.1,4.7-1.6
		c0.2-1,0.3-1.9,0.5-2.9c0.4-1.6,1.4-3,1.2-4.7c-0.4-1-1.2-1.6-2.1-1.9c-1-0.2-2.1-0.1-2.7,0.7c-1.1,0.9-0.3,2.4-0.3,3.6
		c0,0.3,0,0.4-0.2,0.6c-4.5-0.4-8.7-1.5-13.2-2c-1-0.2-2.1-0.1-3-0.3l-1.3-0.1c-3.9,0.1-7.8,0.3-11.4,1.3
		C37.9,59.3,37,59.4,36.3,59.6z M39.3,71.6l-0.4-0.4c0.2-0.3,0.7-0.1,1-0.3c0.8-0.2,1.7-0.6,2.6-0.4C41.6,71.2,40.4,71.3,39.3,71.6z
		 M58.8,71.1c0.7,0.3,2.2,0.7,3.3,0.8c-0.1,0.4-0.9,0-0.8,0.6c-1-0.4-2.1-0.6-2.8-1.3C58.6,71.2,58.6,71.1,58.8,71.1z M29.6,57.8
		c0.1-0.6,0.2-1.2,0.7-1.6c0.7-0.4,1.8-0.3,2.5,0.1c0.2,0.1,0.4,0.3,0.5,0.6c0.2,0.5-0.1,1.1-0.5,1.4h-0.3c0-0.5,0-1,0.2-1.4
		c0-0.4-0.3-0.4-0.6-0.6c-0.5-0.2-1,0.1-1.4,0.3c-0.3,0.4-0.6,0.8-0.4,1.4c0.2,0.3,0,0.8,0.2,1.2l-0.1,0.1
		C30,58.9,29.5,58.5,29.6,57.8z M31,58.7c0.5,0.3,1.1,0.2,1.7,0.3c0.1,0.3,0.1,0.8-0.2,1.1C32,60,31.3,60,31,59.5
		C31.1,59.2,31,58.9,31,58.7z M30.9,57.6c0.1-0.3,0-0.6,0.3-0.7c0.2-0.1,0.6-0.1,0.6,0.2c0,0.4-0.1,0.8-0.2,1.1
		C31.3,58.2,31.1,58,30.9,57.6z M45.5,67.7c-0.2-1.1,0.3-2,1-2.8c0.4-0.1,0.9-0.2,1.3,0.1c-0.8,0.2-1.8,0.4-2,1.4
		c0,0.4-0.1,0.6,0.1,1c0.3,0.6,1.1,0.3,1.6,0.8c0,0.2-0.1,0.3-0.3,0.4C46.7,68.2,46,68.1,45.5,67.7z M44.4,69.8
		c0.7-0.3,1.5-1,2.4-0.7C46.2,69.6,45.2,69.8,44.4,69.8z M47.4,70.1c-0.4,1-0.9,2-1.5,2.9c-0.1,0.2-0.3,0.2-0.5,0.2
		c0-0.4,0.4-0.8,0.6-1.2c0.7-0.8,0.8-1.8,1.6-2.6C47.7,69.8,47.4,69.9,47.4,70.1z M48.2,68.3L48.2,68.3L48.2,68.3L48.2,68.3
		L48.2,68.3L48.2,68.3C48.2,68.3,48.1,68.3,48.2,68.3L48.2,68.3z M47.9,67.5c-0.5-0.1-1-0.2-1.5-0.4c-0.3-0.3,0-0.7,0-1
		c0.4-0.7,1.7-1,2.3-0.4C48.6,66.4,48.3,67,47.9,67.5z M48.6,67.5c0.1-0.4,0.3-0.9,0.5-1.3C49,66.6,48.8,67.1,48.6,67.5z M48.9,64.9
		c-0.4-0.1-0.6-0.6-1.1-0.6c0.4-0.1,0.7-0.1,1.2,0C49.2,64.6,48.9,64.8,48.9,64.9z M49.3,65.9L49.3,65.9v-0.3l0,0V65.9z M49.3,67.3
		c0-0.1,0.1-0.3,0.1-0.4c0.2-0.2,0.3,0.1,0.4,0.2C49.7,67.3,49.5,67.4,49.3,67.3z M49.8,65.4c0.2-0.4,0.2-0.8,0.5-1.2
		c0.3,0,0.6,0,0.8,0.1c0.1,0.6,0.8,1.5,0,2c-0.3,0.1-0.7,0.4-1,0.1C49.7,66.1,49.6,65.8,49.8,65.4z M52,64.5
		c-0.1-0.3,0.3-0.1,0.4-0.2l1,0.1C52.9,64.3,52.3,65.5,52,64.5z M53.6,64.9c-0.4,0.1-0.7,0.6-1,0.7C52.8,65.2,53.2,64.9,53.6,64.9z
		 M52.3,66.9L52.3,66.9L52.3,66.9L52.3,66.9L52.3,66.9z M52.4,68.8c0,0.1,0,0.2-0.1,0.2l-0.7-0.6C51.9,68.4,52.2,68.5,52.4,68.8z
		 M51.5,67.8c0.1-0.1,0.2-0.1,0.3,0H51.5z M51.1,67.3c0.1-0.2,0.3-0.5,0.5-0.5c0,0,0,0.1,0.1,0.1C51.5,67.1,51.3,67.3,51.1,67.3z
		 M50.4,67.3L50.4,67.3l0.1-0.2C50.5,67.1,50.4,67.2,50.4,67.3z M50.5,68.5c0.4-0.4,0.8,0.3,0.9,0.6c0.5,0.7,1.7,1.3,1.2,2.3
		c-0.6,0.5-1.5,0-2.2,0.4c-0.3,0-0.9,0.1-1.1-0.3C49.6,70.5,50,69.3,50.5,68.5z M49.6,69.1l0.2-0.2c-0.2,0.8-0.6,1.5-1,2.3
		C48.5,70.3,49.3,69.7,49.6,69.1z M51,72.8c-0.6,0-1.5,0.4-2.1-0.1c0-0.3-0.2-0.4-0.2-0.6c0.5-0.2,0.9,0.4,1.4,0
		c0.7,0,1.5-0.1,2.2,0.1c0.3,0.1,0.9-0.6,0.9,0.1C52.9,73.2,51.7,72.5,51,72.8z M52.8,68.3L52.8,68.3L52.8,68.3L52.8,68.3L52.8,68.3
		z M52.9,70.2c0,0.3,0.3,0.4,0.2,0.7C53,70.8,52.8,70.6,52.9,70.2z M53.8,72.1l-0.2,0.1c-0.2-0.1-0.1-0.5-0.1-0.7
		C53.8,71.7,53.9,71.9,53.8,72.1z M55.4,72.9c0,0.1-0.2,0.1-0.2,0c-0.9-1.2-1.4-2.4-2-3.8h0.1C54,70.3,54.6,71.7,55.4,72.9z
		 M56.5,70C56.4,70,56.4,70.1,56.5,70c-1,0.1-1.6-0.4-2.3-0.9v-0.2C55.1,69.1,55.8,69.6,56.5,70z M55.7,65.8
		c0.4,0.1,0.4,0.5,0.4,0.8c0,0.7-0.4,1.3-1.1,1.5c-0.3,0.2-0.9,0.3-1.2,0.1c0.7,0,1.6-0.3,1.9-1.1L55.7,65.8z M55,65.7
		c0.2,0.4,0.4,0.8,0.3,1.4c-0.3,0.6-0.9,0.6-1.5,0.7c-0.3,0-0.5-0.1-0.7-0.2c0-0.1,0-0.2-0.1-0.3c0.1-0.4-0.7-0.8-0.2-1.2
		C53.3,65.6,54.5,64.6,55,65.7z M69.1,56c0.5-0.3,1.3-0.2,1.8,0.1c0.4,0.1,0.9,0.3,1,0.7c0.5,0.4,0.3,1.2,0.2,1.8
		c-0.3,0.6-0.7,1-1.3,1.1c0-0.8,0.7-1.3,0.5-2.1c-0.4-0.6-1.2-0.8-2-0.6c-0.3,0.2-0.2,0.5-0.2,0.8l-0.1,1c-0.6,0-0.7-0.6-0.8-1
		C68.1,57,68.4,56.3,69.1,56z M69.6,58.8c0.3-0.3-0.1-2.3,0.9-1c0,0.2,0,0.6-0.2,0.8C70.1,58.7,69.9,59,69.6,58.8z M70,59.6
		c0,0.5-0.4,0.4-0.7,0.6h-0.7c-0.2-0.3-0.1-0.6-0.1-0.9C68.9,59.4,69.5,59.4,70,59.6z M46,58.6c2.8,0,5.7-0.2,8.3,0.3
		c0.9,0,1.6,0.3,2.5,0.3c1.7,0.2,3.4,0.7,5.1,0.8c0.3,0.1,0.6,0.1,0.9,0.2c2.8,0.4,5.9,1.2,8.6,0c0,1.1-0.5,2.2-0.6,3.3
		c-0.2,0.3,0,0.8-0.3,1.1c0,0.6-0.5,0.8-0.9,1.1c-3.7,0.8-7.3-0.4-10.9-1.1c-5-1.1-10.9-1.4-16-0.3c-2.4,0.4-4.7,1-7,1.7
		c-1.4,0.2-3,0.4-4.4,0c-1.1-0.5-0.7-2-1-3c0.1-0.8-0.2-1.4-0.2-2.2C30,60.6,29.9,60.2,30,60c0.5,0.1,0.9,0.4,1.4,0.5
		c2.6,0.5,4.9-0.3,7.4-0.8C41.1,59.2,43.5,58.8,46,58.6z M36.9,61.8l0.4,1.7c0.1,0.6,0.3,0.7,0.6,0.8c0.5,0.2,1.1,0.1,1.3,0
		c0.4-0.1,0.9-0.3,1.1-0.7c0.2-0.3,0.2-0.8,0.1-1.1L40.1,61c-0.1-0.3,0-0.4,0.4-0.6v-0.1l-1.4,0.3v0.1c0.5-0.1,0.7,0.1,0.7,0.4
		l0.4,1.6c0.1,0.3,0.3,1.1-0.8,1.4c-0.9,0.2-1.1-0.5-1.1-0.8l-0.4-1.7c-0.1-0.5,0.1-0.5,0.5-0.6v-0.1l-2.1,0.5v0.1
		C36.6,61.4,36.8,61.4,36.9,61.8z M63.3,64.7L63.3,64.7l1.3,0.2v-0.1c-0.2,0-0.5-0.1-0.5-0.3c0-0.1,0.1-0.3,0.3-0.7l1.4,0.1
		c0.1,0.2,0.2,0.6,0.2,0.7c0,0.2-0.1,0.2-0.5,0.2v0.1l2,0.2V65c-0.3,0-0.4-0.2-0.6-0.8l-1.1-2.9h-0.2L64,64.1
		C63.8,64.5,63.7,64.6,63.3,64.7z M65.3,62.4l0.5,1.4l-1.2-0.1L65.3,62.4z M43.6,35.4c0.4,0,0.3-0.3,0.4-0.4c0,0.2,0.2-0.1,0.2,0.2
		c0,0.4-0.4,0.2-0.4,0.5c0,0.4,0.6,0,0.6,0.4c0,0.5-0.1,0.5-0.1,0.7c0,0.1,0.6-0.2,0.6-0.3c0.1,0,0.1,0.5,0.4,0.5
		c0.2,0,0.2-0.4,0.3-0.5c-0.1,0,0.5,0.4,0.5,0.2c0-0.5-0.2-0.3-0.2-0.7c0-0.3,0.7-0.3,0.6-0.4c-0.1-0.1-0.2-0.1-0.2-0.3
		c0,0-0.6-0.8,0.1-0.4c0.7,0.5,0.8-1.1,0.8-1.2c0,0-0.4,0.1-0.5,0.2c0.1-0.2,0.4-0.6,0.5-0.7c0-0.2-0.3,0-0.6,0.1
		c1-1.5,0.4-0.9-0.2-0.8c0.9-1,0.7-1,0-0.7c0.5-0.4,0.6-0.9,0.6-1.1c-0.5,0.7-0.9,0.6-0.9,1.2c0,0.4-0.1,1.1-0.3,1.3
		c-0.3,0.3-0.1-1.1-0.8-1.1c-0.2,0-0.7,0-0.9,0.3c0.1,0,0.4,0.4,0.4,0.5s0.1,0.5-0.1,0.5s-0.5-0.5-0.5-0.7s0-0.2,0-0.5
		c0-0.6-0.9-1.4-1.3-1.4c0,0.4,0.5,0.5,0.5,1c-0.2,0-0.5-0.4-0.5-0.2s0.3,0.3,0.3,0.5c0,0.2-0.4-0.1-0.4,0.2c0,0.2,0.2,0.2,0.3,0.4
		c-0.2,0-0.3,0-0.3,0.1s0,0.2,0.2,0.2c-0.1,0.1-0.1,0.2-0.1,0.5C42.4,34.8,43.1,35.4,43.6,35.4z M43,37.4l6.9,4.1
		c0.2,0.2,0.4,0.3,0.6,0.3c0.2,0,0.4-0.1,0.6-0.2l7-4.2c0.8-0.4,1.4-1.6,1.4-3V20l0,0l0,0H41.6l0,0l0,0v14.4
		C41.6,35.8,42.2,37,43,37.4z M47.5,30H46v-3.5h1.5V30z M46.5,25h0.3l0.2-0.3l0.2,0.3h0.3l-0.1,0.2l0.2,0.2l-0.3,0.1v0.3L47,25.6
		l-0.3,0.2v-0.3l-0.3-0.1l0.2-0.2L46.5,25z M53.5,20.5h5.4V30h-5.4V20.5z M53.5,30.5h5.4v4.1c-0.1,1-0.4,1.9-1.2,2.4l-4.3,2.5
		L53.5,30.5L53.5,30.5z M48,20.5h5V30h-5V20.5z M48,30.5h5v9.3L51,41l0,0c-0.1,0.1-0.3,0.2-0.5,0.2S50.1,41.1,50,41l-2-1.2V30.5z
		 M46,20.5h1.5v3.7H46V20.5z M44.5,21.4h0.3l0.2-0.3l0.2,0.3h0.3l-0.1,0.3l0.2,0.2L45.3,22v0.3L45,22l-0.3,0.2v-0.3l-0.3-0.1
		l0.2-0.2L44.5,21.4z M44.4,24.6c0.5,0,0.4,0.5,0.5,0.5s0-0.5,0.3-0.5c0.5,0,1.2,1.3,0.6,1.3c-0.3,0,0-0.2-0.1-0.2
		c0-0.1-0.1-0.1-0.2-0.1c-0.2,0-0.2,0.3-0.4,0.3c-0.1,0-0.2,0-0.2-0.1s0.2-0.2,0.3-0.2c-1.2,0-1.2,0.5-1.4,0.5
		c-0.3,0,0.3-0.6,0.4-0.7c-0.2,0-0.4-0.3-0.6-0.5c0.1-0.2,0.2-0.1,0.3,0C44.1,24.8,44.1,24.6,44.4,24.6z M44.4,29l0.2-0.2l-0.1-0.3
		h0.3l0.2-0.3l0.2,0.3h0.3l-0.1,0.3l0.2,0.2l-0.3,0.1v0.3L45,29.2l-0.3,0.2v-0.3L44.4,29z M42.1,20.5H44v3.7h-1.9V20.5z M42.3,25.4
		l0.2-0.2L42.4,25h0.3l0.2-0.3L43,25h0.3l-0.1,0.2l0.2,0.2l-0.3,0.1v0.3l-0.3-0.2l-0.3,0.2v-0.3L42.3,25.4z M42.1,26.5H44V30h-1.9
		V26.5z M42.1,30.5h5.4v9L43.2,37c-0.7-0.5-1.1-1.3-1.2-2.4L42.1,30.5L42.1,30.5z M51.4,37.9c0.5-0.2,0.9-0.6,1.2-1
		c0-0.5,0.2-1.2-0.1-1.6c-0.4-0.4-0.5-1.2-0.6-1.8c-0.1-0.8,0.9-0.1,0.9-0.7c-0.3-0.3-0.7-0.9-1.3-0.5c-0.3,0.2-0.4,0.6-0.4,1
		c0.1,0.8,0.5,1.5,0.6,2.3c-0.2-0.1-0.3-0.3-0.4-0.4c-0.6-0.8-1.8-0.6-2.5-1.3c-0.9,0.1,0.6,1-0.4,1.1c0,0.2,0.2,0.3,0.2,0.5
		c-0.1,0.1-0.2,0.1-0.3,0.1c0,0.5,0.3,1,0.5,1.5C49.2,38.3,50.5,37.8,51.4,37.9z M52,27.6h-0.2l-0.1-0.2l-0.1,0.2h-0.2l0.1,0.1
		l-0.1,0.1h0.2V28l0.2-0.1L52,28v-0.2h0.2l-0.1-0.1L52,27.6z M52.1,25.8h-0.3l-0.2-0.3l-0.2,0.3h-0.3l0.1,0.3L51,26.4l0.3,0.1v0.3
		l0.3-0.2l0.3,0.2v-0.3l0.3-0.1L52,26.2L52.1,25.8z M41.7,37.5c0.2,0,0.3-0.1,0.3-0.3c0-0.1-0.3-0.5-0.3-0.5l-0.3,0.5
		C41.4,37.4,41.6,37.5,41.7,37.5z M41,19.9c0.2,0,0.3-0.1,0.3-0.3L41,19c0,0-0.3,0.5-0.3,0.6S40.8,19.9,41,19.9z M36.6,37.1
		c-0.3,0-0.6,0.2-0.6,0.5s0.3,0.5,0.6,0.5s0.6-0.2,0.6-0.5C37.1,37.4,36.9,37.1,36.6,37.1z M41.2,32.3c0-0.1-0.3-0.5-0.3-0.5
		l-0.3,0.5c0,0.2,0.1,0.3,0.3,0.3C41.1,32.6,41.2,32.4,41.2,32.3z M41.2,26c0-0.1-0.3-0.6-0.3-0.6L40.7,26c0,0.2,0.1,0.3,0.3,0.3
		C41.1,26.3,41.2,26.2,41.2,26z M57.3,24l0.7-2.6l-1.7,0.7l-1.8-0.7l0.7,2.6l-1.3-0.2l0.4,1.5l-0.4,1.6l1.4-0.4l-0.7,2.8l1.8-0.7
		l1.7,0.7l-0.5-2.8l1.2,0.3l-0.5-1.5l0.5-1.6L57.3,24z M57.1,26.1h-1.4c-0.6,0-0.6-0.4-0.6-1c0-0.9,0.9-0.1,1.2-1
		c0.4,1,1.3-0.1,1.3,1C57.5,25.5,57.5,26.1,57.1,26.1z M56.3,24.7c-0.4,0-1-0.2-1,0.4c0,0.4,0.5,0.1,1,0.1s1,0.3,1-0.1
		C57.2,24.5,56.7,24.7,56.3,24.7z M45.7,19.9c0.2,0,0.3-0.1,0.3-0.3L45.7,19c0,0-0.3,0.5-0.3,0.6S45.5,19.9,45.7,19.9z M55.1,19.9
		c0.2,0,0.3-0.1,0.3-0.3L55.1,19c0,0-0.3,0.5-0.3,0.6S54.9,19.9,55.1,19.9z M50.4,19.9c0.2,0,0.3-0.1,0.3-0.3L50.4,19
		c0,0-0.3,0.5-0.3,0.6C50.1,19.7,50.2,19.9,50.4,19.9z M49,26.6V27l0.3-0.2l0.3,0.2v-0.3l0.3-0.1l-0.2-0.2l0.1-0.3h-0.3l-0.2-0.3
		l-0.2,0.3h-0.3l0.1,0.3l-0.2,0.2H49z M50.7,28h-0.5l-0.3-0.5l-0.3,0.6L49.1,28l0.2,0.5l-0.4,0.4l0.5,0.1v0.6l0.5-0.4l0.5,0.4V29
		l0.5-0.1l-0.4-0.4L50.7,28z M51,24.6l0.1-0.3h-0.3L50.6,24l-0.2,0.3h-0.3l0.1,0.3L50,24.8l0.3,0.1v0.3l0.3-0.2l0.3,0.2v-0.3
		l0.3-0.1L51,24.6z M58,34.8c0-0.4,0.5-0.6,0.4-1.1c-0.2-0.5-0.7-0.5-0.9-0.9c0.2-0.1,0.4-0.1,0.6,0c0.1,0.1,0.2,0.1,0.4,0.1
		l0.2-0.5c0,0-0.2-0.2-0.3-0.2c-0.5,0.1-1,0.2-1.3,0.7c0,0.3,0.2,0.6,0.5,0.8c0.2-0.1,0.2,0.1,0.3,0.2c0,0.2-0.1,0.3-0.2,0.3
		c-0.4-0.4-1,0.1-1.2-0.3c0.1-0.4,0.4-1,0-1.4c0-0.1,0.2-0.2,0.1-0.3c-0.1-0.4-0.6-0.1-0.9-0.1c-0.4-0.1-0.8,0.2-1.1,0.5
		c0,0.2,0.1,0.3,0.2,0.5c0.1,0,0.2,0,0.2,0.1l-0.3,0.2c0.1,0.1,0.1,0.2,0.1,0.3c-0.2,0.1-0.4-0.2-0.5-0.4c0-0.2,0-0.7-0.3-0.7
		c-0.1,0-0.3,0.1-0.3,0.1c-0.1,0.1-0.1,0.3-0.1,0.5s0.1,0.5,0.1,0.5s0.9,0.7,1.1,1.1c-0.3,0.5-0.3,1.3-0.9,1.6
		c-0.2,0.1-0.2,0.3-0.2,0.5l0.1,0.1c0.4-0.2,1.1-0.3,1.1-0.9c0.1-0.3,0.3-0.6,0.6-0.8c0.3-0.1,0.6,0.1,0.7,0.3
		c-0.1,0.4-0.4,0.7-0.8,0.9c-0.1,0.1,0,0.2,0,0.2c0.1,0.2,0.4,0.1,0.6,0.1c0.5-0.3,0.7-0.9,1.2-1.1c0.1,0.3-0.6,0.4-0.2,0.7
		c0.3-0.1,0.6,0,0.8-0.3C57.6,35.5,58.5,35.2,58,34.8z M49.4,22.9v0.4c0,0.1,0.1,0.2,0.2,0.2H51c0.1,0,0.2-0.1,0.2-0.2v-0.4
		c0.2-0.1,0.3-0.4,0.3-0.7c0-1.3-0.7-0.1-1.1-1.2c-0.3,0.9-1.2,0.1-1.2,1.1C49.1,22.6,49.2,22.8,49.4,22.9z M50.2,21.8
		c0.4,0,1-0.1,1,0.5c0,0.4-0.5,0.2-0.9,0.2s-0.9,0.3-0.9-0.2C49.4,21.7,49.8,21.8,50.2,21.8z"/>
	<polygon points="303.9,47.3 106.9,47.3 106.9,45.9 303.9,45.9 	"/>
	<g>
		<path d="M175,68.4V68h0.4c0.3,0,0.6-0.1,0.8-0.2s0.3-0.3,0.4-0.4c0.1-0.1,0.1-0.5,0.1-1.1v-7.9c0-0.6,0-1-0.1-1.1
			c-0.1-0.2-0.2-0.3-0.4-0.4c-0.2-0.1-0.5-0.2-0.8-0.2H175v-0.3h5.4c1.4,0,2.6,0.2,3.5,0.6c1.1,0.5,1.9,1.2,2.4,2.2
			c0.6,1,0.8,2.1,0.8,3.3c0,0.8-0.1,1.6-0.4,2.3c-0.3,0.7-0.6,1.3-1.1,1.8c-0.4,0.5-0.9,0.8-1.5,1.1c-0.6,0.3-1.3,0.5-2.1,0.7
			c-0.4,0.1-0.9,0.1-1.7,0.1L175,68.4L175,68.4z M179.6,57v9.4c0,0.5,0,0.8,0.1,0.9c0,0.1,0.1,0.2,0.2,0.3c0.2,0.1,0.4,0.1,0.7,0.1
			c1,0,1.7-0.3,2.3-1c0.7-0.9,1.1-2.3,1.1-4.2c0-1.5-0.2-2.8-0.7-3.7c-0.4-0.7-0.9-1.2-1.5-1.5C181.3,57.1,180.6,57,179.6,57z"/>
		<path d="M195.5,63.9H191c0.1,1.1,0.3,2,0.9,2.6c0.4,0.5,0.9,0.7,1.5,0.7c0.4,0,0.7-0.1,1-0.3c0.3-0.2,0.6-0.6,0.9-1.1l0.3,0.2
			c-0.5,0.9-0.9,1.6-1.5,1.9c-0.5,0.4-1.2,0.6-1.9,0.6c-1.2,0-2.2-0.5-2.8-1.4c-0.5-0.8-0.8-1.7-0.8-2.8c0-1.4,0.4-2.5,1.1-3.3
			c0.7-0.8,1.6-1.2,2.6-1.2c0.8,0,1.6,0.3,2.2,1C195.1,61.6,195.5,62.6,195.5,63.9z M193.3,63.3c0-1-0.1-1.6-0.2-2
			c-0.1-0.4-0.3-0.6-0.5-0.8c-0.1-0.1-0.3-0.2-0.5-0.2c-0.3,0-0.6,0.1-0.8,0.5c-0.4,0.5-0.5,1.2-0.5,2.2v0.3H193.3z"/>
		<path d="M200.2,61v5.7c0,0.6,0.1,0.9,0.2,1c0.2,0.2,0.5,0.3,1,0.3v0.3h-4.9V68c0.4,0,0.6,0,0.8-0.1s0.3-0.2,0.3-0.3
			c0.1-0.1,0.1-0.4,0.1-0.9V61h-1.2v-0.9h1.2v-0.6v-0.4c0-0.9,0.3-1.6,0.9-2.1c0.6-0.6,1.5-0.9,2.5-0.9c0.7,0,1.3,0.1,1.6,0.4
			c0.4,0.3,0.5,0.6,0.5,0.9c0,0.3-0.1,0.5-0.3,0.7s-0.5,0.3-0.9,0.3c-0.3,0-0.6-0.1-0.7-0.2c-0.2-0.2-0.3-0.3-0.3-0.5
			c0-0.1,0-0.2,0.1-0.3c0-0.1,0-0.2,0-0.3s0-0.2-0.1-0.3s-0.2-0.1-0.3-0.1c-0.2,0-0.3,0.1-0.4,0.2c-0.1,0.1-0.2,0.4-0.2,0.7v1.5v1.1
			h1.2V61H200.2L200.2,61z"/>
		<path d="M209.6,63.9h-4.5c0.1,1.1,0.3,2,0.9,2.6c0.4,0.5,0.9,0.7,1.5,0.7c0.4,0,0.7-0.1,1-0.3c0.3-0.2,0.6-0.6,0.9-1.1l0.3,0.2
			c-0.4,0.9-0.9,1.6-1.5,1.9c-0.5,0.4-1.2,0.6-1.9,0.6c-1.2,0-2.2-0.5-2.8-1.4c-0.5-0.8-0.8-1.7-0.8-2.8c0-1.4,0.4-2.5,1.1-3.3
			c0.7-0.8,1.6-1.2,2.6-1.2c0.8,0,1.6,0.3,2.2,1C209.2,61.6,209.5,62.6,209.6,63.9z M207.4,63.3c0-1-0.1-1.6-0.2-2
			c-0.1-0.4-0.3-0.6-0.5-0.8c-0.1-0.1-0.3-0.2-0.5-0.2c-0.3,0-0.6,0.1-0.8,0.5c-0.3,0.5-0.5,1.2-0.5,2.2v0.3H207.4z"/>
		<path d="M214,60.1v1.1c0.4-0.5,0.8-0.8,1.2-1s0.8-0.3,1.3-0.3s1,0.1,1.3,0.4c0.4,0.3,0.6,0.7,0.7,1.1c0.1,0.3,0.1,1,0.1,1.9v3.2
			c0,0.6,0.1,1,0.2,1.2c0.1,0.2,0.4,0.3,0.7,0.3v0.3h-4.1V68c0.3,0,0.5-0.2,0.7-0.4c0.1-0.1,0.1-0.5,0.1-1.1v-3.7
			c0-0.7,0-1.1-0.1-1.3s-0.1-0.3-0.3-0.4c-0.1-0.1-0.3-0.1-0.4-0.1c-0.5,0-1,0.4-1.4,1.1v4.4c0,0.6,0.1,1,0.2,1.2
			c0.1,0.2,0.3,0.3,0.6,0.3v0.3h-4.2V68c0.3,0,0.6-0.1,0.7-0.3c0.1-0.1,0.1-0.5,0.1-1.2v-4.7c0-0.6-0.1-1-0.2-1.2
			c-0.1-0.2-0.4-0.3-0.7-0.3V60L214,60.1L214,60.1z"/>
		<path d="M227.5,66.2l0.3,0.2c-0.4,0.7-0.9,1.3-1.5,1.6c-0.6,0.4-1.2,0.5-1.9,0.5c-1.1,0-2-0.4-2.6-1.3c-0.7-0.8-1-1.8-1-3
			c0-1.1,0.3-2.1,0.9-3c0.7-1,1.7-1.5,3-1.5c0.9,0,1.5,0.2,2,0.6c0.5,0.4,0.8,0.9,0.8,1.4c0,0.3-0.1,0.6-0.3,0.8s-0.5,0.3-0.8,0.3
			c-0.4,0-0.6-0.1-0.9-0.3c-0.2-0.2-0.4-0.6-0.4-1.2c0-0.4-0.1-0.6-0.3-0.8c-0.1-0.1-0.3-0.2-0.5-0.2c-0.3,0-0.5,0.2-0.7,0.5
			c-0.3,0.5-0.5,1.2-0.5,2.1c0,0.8,0.1,1.5,0.4,2.2s0.6,1.2,1,1.6c0.3,0.3,0.7,0.4,1.1,0.4c0.3,0,0.6-0.1,0.8-0.2
			C226.8,66.9,227.1,66.6,227.5,66.2z"/>
		<path d="M235.8,63.9h-4.5c0.1,1.1,0.3,2,0.9,2.6c0.4,0.5,0.9,0.7,1.5,0.7c0.4,0,0.7-0.1,1-0.3c0.3-0.2,0.6-0.6,0.9-1.1l0.3,0.2
			c-0.5,0.9-0.9,1.6-1.5,1.9c-0.5,0.4-1.2,0.6-1.9,0.6c-1.2,0-2.2-0.5-2.8-1.4c-0.5-0.8-0.8-1.7-0.8-2.8c0-1.4,0.4-2.5,1.1-3.3
			c0.7-0.8,1.6-1.2,2.6-1.2c0.8,0,1.6,0.3,2.2,1C235.4,61.6,235.7,62.6,235.8,63.9z M233.6,63.3c0-1-0.1-1.6-0.2-2
			c-0.1-0.4-0.3-0.6-0.5-0.8c-0.1-0.1-0.3-0.2-0.5-0.2c-0.3,0-0.6,0.1-0.8,0.5c-0.4,0.5-0.5,1.2-0.5,2.2v0.3H233.6z"/>
	</g>
</g>
</svg>
